<?xml version="1.0" encoding="utf-8"?>
<svg id="master-artboard" viewBox="0 0 1857.3992919921875 408.2510986328125" version="1.1" xmlns="http://www.w3.org/2000/svg" x="0px" y="0px" width="1857.3992919921875px" height="408.2510986328125px" enable-background="new 0 0 1400 980"><rect id="ee-background" x="0" y="0" width="1857.3992919921875" height="408.2510986328125" style="fill: white; fill-opacity: 0; pointer-events: none;"/>

<g transform="matrix(1, 0, 0, 1, -69.17040252685547, -42.309417724609375)">
	<g>
		<path fill="#CFD9E6" d="M1183.817,344.97c-20.017,7.506-41.283,16.263-58.799,28.773l0,0l0,0&#10;&#9;&#9;&#9;c-2.501,10.009-6.255,18.766-7.507,28.774c15.013-3.753,86.322-38.783,63.804-56.297"/>
		<path fill="#CFD9E6" d="M1127.521,359.982c-8.757-1.251-26.271,7.506-36.28,13.761c-1.25,3.753-1.25,12.511,0,16.263&#10;&#9;&#9;&#9;c23.771-6.254,27.523-16.263,37.532-32.527"/>
		<path fill="#7ADED4" d="M1118.764,378.749c-6.256,0-23.771,13.761-31.275,18.765c2.502,20.017,18.765,15.012,28.772,2.502"/>
		<path fill="#7ADED4" d="M1093.742,411.275c-2.502,8.757-15.012,25.021-20.017,36.28c12.511,2.501,27.523,1.251,41.285,1.251&#10;&#9;&#9;&#9;c0-11.26-11.26-33.779-17.515-42.536"/>
		<path fill="#FF5959" d="M1009.924,88.508c-27.522,37.532,5.006,90.076,46.29,95.08c27.522,3.753,56.296-1.251,85.07,3.753&#10;&#9;&#9;&#9;c16.263,2.502,30.025,5.003,35.029,23.77c2.503,6.255-3.754,35.03,0,38.782l0,0c10.009,2.502,11.261-8.757,12.511-17.514&#10;&#9;&#9;&#9;c-1.25,5.004-1.25,11.259-2.502,17.514c10.008-1.25,25.021,0,20.016,15.013c-3.753,11.259-20.016,5.004-21.267,23.77&#10;&#9;&#9;&#9;c23.77-20.017,120.551-92.648,74.262-127.677c18.765-20.017,8.101-57.317-10.666-77.333&#10;&#9;&#9;&#9;c-23.769-23.77-82.058-29.168-113.334-26.667c-26.271,1.251-55.349,27.756-80.37,18.999&#10;&#9;&#9;&#9;C1037.448,70.994,1003.67,44.722,1009.924,88.508L1009.924,88.508"/>
		
		
		
		<g>
			<path d="M1189.825,206.105c-1.812,14.518-3.669,29.137-3.752,43.787c-0.006,1.034,1.322,2.008,2.257,1.295&#10;&#9;&#9;&#9;&#9;c3.56-2.715,8.273-5.486,12.794-3.401c3.265,1.505,4.871,5.155,5.544,8.471c0.69,3.404,0.097,7.419-2.186,10.122&#10;&#9;&#9;&#9;&#9;c-3.236,3.833-8.774,2.456-12.759,0.833c-0.775-0.316-1.625,0.338-1.845,1.047c-8.473,27.34-7.468,56.019-10.062,84.219&#10;&#9;&#9;&#9;&#9;c-0.178,1.927,2.824,1.91,3,0c2.57-27.936,1.562-56.336,9.955-83.421c-0.615,0.349-1.23,0.698-1.845,1.047&#10;&#9;&#9;&#9;&#9;c4.972,2.027,10.481,2.756,14.896-0.833c3.638-2.958,4.46-8.446,3.892-12.811c-0.593-4.561-2.931-9.028-7.075-11.264&#10;&#9;&#9;&#9;&#9;c-5.354-2.888-11.483,0.092-15.822,3.401c0.752,0.432,1.505,0.864,2.257,1.295c0.083-14.65,1.939-29.269,3.752-43.787&#10;&#9;&#9;&#9;&#9;C1193.064,204.189,1190.062,204.212,1189.825,206.105L1189.825,206.105z"/>
		</g>
		<g>
			<path d="M1191.136,264.714c2.643-2.764,4.14-6,8.096-7.121c-0.564-0.229-1.129-0.459-1.693-0.689&#10;&#9;&#9;&#9;&#9;c0.834,1.251,1.668,2.502,2.502,3.753c0.078-0.605,0.156-1.211,0.234-1.817c-0.319,0.308-1.497,1.084-1.137,1.243&#10;&#9;&#9;&#9;&#9;c-0.339-0.149-0.642-0.538-0.913-0.779c-1.164-1.037-2.512-1.67-3.999-2.1c-1.862-0.538-2.652,2.357-0.797,2.893&#10;&#9;&#9;&#9;&#9;c1.864,0.539,2.766,1.948,4.416,2.675c1.808,0.795,3.33-0.63,4.551-1.81c0.463-0.447,0.601-1.268,0.234-1.817&#10;&#9;&#9;&#9;&#9;c-0.834-1.251-1.668-2.502-2.502-3.753c-0.374-0.561-1.018-0.881-1.693-0.689c-4.594,1.3-6.344,4.674-9.42,7.892&#10;&#9;&#9;&#9;&#9;C1187.679,263.991,1189.797,266.115,1191.136,264.714L1191.136,264.714z"/>
		</g>
		<g>
			<path d="M1066.748,219.362c-0.642,5.711-3.558,11.477-7.484,15.621c-0.522,0.551-0.642,1.589,0,2.121&#10;&#9;&#9;&#9;&#9;c1.834,1.522,3.681,2.303,6.064,2.524c1.927,0.179,1.717-2.823-0.192-3c-1.494-0.071-2.136-0.62-4.136-1.646&#10;&#9;&#9;&#9;&#9;c0,0.707,0,1.414,0,2.121c5-4.766,7.821-11.205,8.556-17.742C1069.771,217.441,1066.961,217.462,1066.748,219.362&#10;&#9;&#9;&#9;&#9;L1066.748,219.362z"/>
		</g>
		<g>
			<path d="M1116.206,219.194c0.886-0.066,1.573-0.621,1.616-1.554c0.037-0.812-0.745-1.627-1.577-1.554&#10;&#9;&#9;&#9;&#9;c-1.833,0.161-1.94,2.268-1.955,3.693c-0.011,1.025,0.961,1.639,1.898,1.446c1.128-0.231,2.209-0.6,2.896-1.581&#10;&#9;&#9;&#9;&#9;c0.714-1.019,0.702-2.427,0.708-3.618c0.005-1.048-0.955-1.608-1.898-1.446c-1.297,0.222-2.703,0.891-3.258,2.166&#10;&#9;&#9;&#9;&#9;c-0.477,1.097-0.441,2.4,0.276,3.396c0.663,0.92,1.823,1.593,2.977,1.161c1.502-0.563,2.053-2.162,2.266-3.626&#10;&#9;&#9;&#9;&#9;c0.149-1.026-0.394-1.795-1.446-1.899c-1.473-0.145-3.859-0.16-4.599,1.467c-0.897,1.973,1.044,3.447,2.591,4.247&#10;&#9;&#9;&#9;&#9;c0.671,0.347,1.696,0.23,2.052-0.539c0.424-0.915,0.622-1.691,0.479-2.696c-0.094-0.654-0.594-1.177-0.896-1.736&#10;&#9;&#9;&#9;&#9;c-0.921-1.702-3.511-0.188-2.59,1.514c0.15,0.279,0.336,0.533,0.506,0.801c0.205,0.324-0.013-0.167,0.088,0.219&#10;&#9;&#9;&#9;&#9;c-0.045-0.17-0.157,0.342-0.177,0.385c0.684-0.18,1.368-0.359,2.052-0.539c-0.395-0.204-0.81-0.412-1.15-0.698&#10;&#9;&#9;&#9;&#9;c0.013,0.011-0.365-0.408-0.214-0.197c-0.091-0.162-0.094-0.158-0.01,0.011c0.058,0.222,0.025,0.438-0.098,0.649&#10;&#9;&#9;&#9;&#9;c-0.038,0.084-0.386,0.312-0.098,0.149c-0.174,0.099,0.361-0.074,0.45-0.09c0.504-0.093,1.107,0.003,1.613,0.053&#10;&#9;&#9;&#9;&#9;c-0.482-0.633-0.964-1.266-1.446-1.899c-0.069,0.473-0.162,0.933-0.315,1.385c0.061-0.179-0.129,0.24-0.161,0.294&#10;&#9;&#9;&#9;&#9;c0.199-0.326-0.299,0.204,0.102-0.08c-0.082,0.058,0.141-0.039,0.292-0.052c-0.16-0.004-0.104,0.006,0.168,0.032&#10;&#9;&#9;&#9;&#9;c-0.148-0.044-0.103-0.02,0.136,0.072c-0.351-0.155,0.145,0.157-0.037-0.006c-0.296-0.268,0.091,0.164-0.047-0.049&#10;&#9;&#9;&#9;&#9;c-0.053-0.081-0.176-0.375-0.017,0.017c-0.049-0.122-0.078-0.25-0.104-0.379c0.086,0.433,0.024,0.021,0.032-0.104&#10;&#9;&#9;&#9;&#9;c-0.033,0.54,0.152-0.292-0.041,0.151c0.039-0.089,0.314-0.431,0.087-0.169c0.235-0.271,0.015-0.053,0.21-0.177&#10;&#9;&#9;&#9;&#9;c0.292-0.187,0.646-0.26,1.124-0.342c-0.633-0.482-1.266-0.964-1.898-1.446c-0.002,0.516-0.015,1.03-0.068,1.543&#10;&#9;&#9;&#9;&#9;c-0.019,0.18-0.062,0.296-0.164,0.466c0.168-0.282,0.013-0.035-0.066,0.037c0.336-0.302-0.341,0.109,0.011-0.029&#10;&#9;&#9;&#9;&#9;c-0.356,0.14-0.74,0.212-1.113,0.289c0.633,0.482,1.266,0.964,1.898,1.446c0.004-0.397,0.011-0.85,0.07-1.159&#10;&#9;&#9;&#9;&#9;c0.019-0.094,0.168-0.479-0.016-0.065c0.012-0.022,0.024-0.043,0.036-0.065c-0.421,0.659-1.129,0.719-2.124,0.18&#10;&#9;&#9;&#9;&#9;c-0.129-0.221-0.257-0.441-0.386-0.662c-0.017-0.123-0.033-0.245-0.049-0.368c0.068-0.252,0.137-0.505,0.205-0.757&#10;&#9;&#9;&#9;&#9;c0.393-0.23,0.785-0.459,1.179-0.689C1114.289,216.336,1114.275,219.337,1116.206,219.194L1116.206,219.194z"/>
		</g>
		<g>
			<path d="M1045.918,206.208c-1.038,1.04-1.664,2.054-1.69,3.562c-0.011,0.599,0.46,1.359,1.102,1.446&#10;&#9;&#9;&#9;&#9;c1.359,0.185,2.715,0.294,4.004-0.261c0.838-0.361,1.505-1.268,1.428-2.207c-0.18-2.164-2.491-3.002-4.366-2.704&#10;&#9;&#9;&#9;&#9;c-0.994,0.158-2.146,0.841-2.607,1.758c-0.549,1.089-0.221,2.149,0.5,3.05c0.994,1.239,3.38,2.148,4.815,1.189&#10;&#9;&#9;&#9;&#9;c0.728-0.486,1.119-1.306,1.055-2.181c-0.011-0.147-0.007-0.289,0.005-0.436c-0.034,0.441,0.021-0.066,0.05-0.177&#10;&#9;&#9;&#9;&#9;c0.059-0.229,0.149-0.448,0.23-0.669c0.324-0.88-0.04-1.668-0.751-2.208c-0.676-0.513-1.935-0.502-2.713-0.601&#10;&#9;&#9;&#9;&#9;c-0.887-0.112-1.403,0.774-1.5,1.5c-0.184,1.377,0.031,2.997,1.342,3.765c1.126,0.661,2.433,0.244,3.386-0.497&#10;&#9;&#9;&#9;&#9;c0.961-0.748,1.325-2.044,0.793-3.148c-0.685-1.421-2.655-1.61-4.021-1.62c-1.936-0.014-1.934,2.986,0,3&#10;&#9;&#9;&#9;&#9;c0.294,0.002,0.586,0.014,0.878,0.04c0.425,0.038-0.305-0.054,0.082,0.013c0.136,0.023,0.27,0.058,0.402,0.095&#10;&#9;&#9;&#9;&#9;c0.097,0.027,0.402,0.151-0.03-0.032c0.069,0.03,0.136,0.066,0.201,0.104c0.109,0.062,0.274,0.231-0.094-0.082&#10;&#9;&#9;&#9;&#9;c0.256,0.217-0.17-0.268-0.056-0.092c-0.042-0.064-0.09-0.298-0.096-0.39c0.009,0.129-0.057,0.343,0.038-0.209&#10;&#9;&#9;&#9;&#9;c-0.022,0.129-0.147,0.385,0.073-0.123c-0.059,0.136-0.312,0.447,0.035,0.01c-0.082,0.104-0.181,0.193-0.283,0.277&#10;&#9;&#9;&#9;&#9;c0.424-0.349,0.095-0.083-0.037-0.012c-0.106,0.057-0.334,0.133,0.146-0.056c-0.071,0.028-0.145,0.048-0.219,0.066&#10;&#9;&#9;&#9;&#9;c-0.324,0.082,0.435-0.006,0.017-0.015c-0.246-0.005,0.426,0.075,0.187,0.025c-0.317-0.067,0.312,0.159,0.11,0.056&#10;&#9;&#9;&#9;&#9;c-0.111-0.057-0.254-0.211,0.123,0.107c-0.088-0.075-0.226-0.271,0.076,0.126c-0.039-0.052-0.07-0.11-0.102-0.167&#10;&#9;&#9;&#9;&#9;c-0.109-0.202,0.129,0.389,0.02,0.008c-0.024-0.083-0.038-0.169-0.053-0.255c0.081,0.474,0.018,0.004,0.015-0.106&#10;&#9;&#9;&#9;&#9;c-0.007-0.296,0.026-0.593,0.065-0.887c-0.5,0.5-1,1-1.5,1.5c0.377,0.048,0.314,0.037,0.709,0.101&#10;&#9;&#9;&#9;&#9;c0.195,0.032,0.389,0.071,0.578,0.125c0.271,0.076-0.342-0.168-0.129-0.06c-0.117-0.06-0.425-0.465-0.532-0.728&#10;&#9;&#9;&#9;&#9;c-0.065-0.16,0.092-0.845-0.055-0.426c-0.099,0.281-0.206,0.553-0.272,0.844c-0.067,0.298-0.1,0.606-0.123,0.91&#10;&#9;&#9;&#9;&#9;c-0.012,0.149-0.044,0.902,0.045,0.313c-0.02,0.129-0.135,0.329,0.071-0.117c-0.104,0.225,0.266-0.295,0.101-0.118&#10;&#9;&#9;&#9;&#9;c-0.166,0.177,0.333-0.224,0.121-0.103c0.363-0.207,0.289-0.111,0.137-0.069c-0.254,0.07,0.417-0.037,0.145-0.018&#10;&#9;&#9;&#9;&#9;c-0.068,0.005-0.138,0.002-0.207-0.001c-0.285-0.012,0.398,0.067,0.107,0.017c-0.102-0.018-0.202-0.045-0.303-0.073&#10;&#9;&#9;&#9;&#9;c-0.077-0.022-0.153-0.05-0.229-0.077c-0.289-0.104,0.335,0.152,0.055,0.021c-0.151-0.07-0.295-0.155-0.436-0.245&#10;&#9;&#9;&#9;&#9;c-0.085-0.054-0.325-0.24,0.038,0.043c-0.062-0.049-0.121-0.103-0.18-0.156c-0.057-0.052-0.109-0.108-0.161-0.165&#10;&#9;&#9;&#9;&#9;c-0.175-0.19,0.219,0.332,0.018,0.012c-0.185-0.293,0.073,0.354-0.019-0.072c0.094,0.44,0.033,0.299,0.041,0.146&#10;&#9;&#9;&#9;&#9;c-0.021,0.441-0.047,0.296,0.004,0.147c-0.141,0.411-0.097,0.231-0.015,0.11c-0.241,0.355-0.107,0.15-0.014,0.062&#10;&#9;&#9;&#9;&#9;c-0.298,0.277-0.083,0.065,0.012,0.004c0.07-0.045,0.523-0.256,0.152-0.104c0.178-0.073,0.366-0.12,0.555-0.156&#10;&#9;&#9;&#9;&#9;c-0.48,0.093,0.069,0.011,0.216,0.017c0.314,0.012-0.375-0.066-0.071-0.014c0.078,0.013,0.155,0.034,0.231,0.054&#10;&#9;&#9;&#9;&#9;c0.074,0.02,0.146,0.047,0.219,0.074c-0.458-0.171-0.141-0.054-0.03,0.008c0.397,0.226-0.17-0.178,0.07,0.05&#10;&#9;&#9;&#9;&#9;c0.249,0.235-0.188-0.334,0.021,0.028c0.123,0.212-0.143-0.386-0.066-0.158c0.043,0.129,0.026,0.335-0.018-0.197&#10;&#9;&#9;&#9;&#9;c0.011,0.135-0.063,0.326,0.036-0.2c-0.04,0.211,0.218-0.398,0.051-0.122c0.215-0.355,0.198-0.24,0.085-0.131&#10;&#9;&#9;&#9;&#9;c0.307-0.294,0.217-0.158,0.089-0.081c-0.096,0.058-0.343,0.138,0.074-0.022c-0.085,0.032-0.173,0.055-0.261,0.078&#10;&#9;&#9;&#9;&#9;c-0.1,0.026-0.201,0.042-0.303,0.059c0.411-0.068,0.002-0.012-0.073-0.007c-0.343,0.021-0.687,0.003-1.027-0.022&#10;&#9;&#9;&#9;&#9;c0.058,0.004-0.496-0.052-0.31-0.027c0.367,0.482,0.734,0.964,1.102,1.446c0-0.117,0.004-0.234,0.013-0.352&#10;&#9;&#9;&#9;&#9;c-0.025,0.137-0.021,0.12,0.012-0.051c0.021-0.088,0.045-0.174,0.075-0.259c-0.071,0.16-0.068,0.164,0.009,0.012&#10;&#9;&#9;&#9;&#9;c0.042-0.074,0.088-0.145,0.137-0.214c-0.102,0.13-0.095,0.126,0.02-0.01c0.171-0.199,0.361-0.382,0.547-0.567&#10;&#9;&#9;&#9;&#9;C1049.407,206.958,1047.286,204.837,1045.918,206.208L1045.918,206.208z"/>
		</g>
		<g>
			<path d="M1072.629,270.139c-2.362-7.03-13.681-11.061-20.012-7.171c-1.645,1.011-0.14,3.606,1.514,2.591&#10;&#9;&#9;&#9;&#9;c4.597-2.825,13.858,0.179,15.605,5.378C1070.35,272.761,1073.247,271.979,1072.629,270.139L1072.629,270.139z"/>
		</g>
		<g>
			<path d="M1190.472,357.675c11.979-2.376,25.198,0.342,36.865,3.125c12.082,2.882,25.96,6.879,35.487,15.255&#10;&#9;&#9;&#9;&#9;c1.446,1.272,3.577-0.841,2.121-2.121c-9.663-8.496-23.301-12.578-35.509-15.705c-12.513-3.206-26.885-6.001-39.762-3.446&#10;&#9;&#9;&#9;&#9;C1187.777,355.159,1188.583,358.05,1190.472,357.675L1190.472,357.675z"/>
		</g>
		<g>
			<path d="M1217.787,401.458c-6.846,7.182-11.443,17.164-12.896,26.933c-0.281,1.892,2.609,2.706,2.893,0.798&#10;&#9;&#9;&#9;&#9;c1.381-9.284,5.608-18.773,12.125-25.61C1221.242,402.179,1219.124,400.055,1217.787,401.458L1217.787,401.458z"/>
		</g>
		<g>
			
		</g>
		
		
		
		
	<g>
			<path d="M1035.946,169.825c-0.171,23.628-7.604,46.751-11.047,69.998c-3.019,20.382-3.611,41.79,9.711,58.737&#10;&#9;&#9;&#9;&#9;c14.708,18.71,37.408,26.386,60.631,24.921c4.896-0.309,9.724-1.083,14.491-2.225c3.652-0.874,7.688-2.474,11.499-1.925&#10;&#9;&#9;&#9;&#9;c4.346,0.626,6.305,5.901,7.634,9.411c2.504,6.611,2.143,13.6,1.465,20.515c-0.421,4.295-1.132,8.561-1.752,12.83&#10;&#9;&#9;&#9;&#9;c-0.275,1.892,2.615,2.706,2.893,0.798c1.672-11.508,4.231-23.649,0.287-34.941c-2.151-6.16-5.644-12.016-12.864-11.673&#10;&#9;&#9;&#9;&#9;c-3.365,0.16-6.712,1.29-9.959,2.092c-5.912,1.461-11.926,2.127-18.007,2.323c-12.35,0.396-24.613-2.199-35.474-8.14&#10;&#9;&#9;&#9;&#9;c-10.753-5.881-20.719-15.851-25.464-27.25c-4.219-10.134-4.315-21.609-3.572-32.383c1.646-23.859,8.941-46.92,11.742-70.627&#10;&#9;&#9;&#9;&#9;c0.489-4.137,0.756-8.296,0.786-12.462C1038.96,167.89,1035.96,167.892,1035.946,169.825L1035.946,169.825z"/>
		</g></g>
	<g>
		<path d="M1080.67,368.653c-25.589,8.834-52.988,10.419-76.854,24.15c-1.676,0.964-0.166,3.557,1.514,2.591&#10;&#9;&#9;&#9;c23.633-13.596,50.801-15.1,76.138-23.848C1083.284,370.918,1082.503,368.02,1080.67,368.653L1080.67,368.653z"/>
	</g>
	<g>
		<path d="M1010.939,89.061c7.499,6.563,14.344,15.004,25.061,15.439c1.936,0.079,1.928-2.922,0-3&#10;&#9;&#9;&#9;c-9.745-0.396-16.145-8.614-22.939-14.561C1011.611,85.671,1009.48,87.784,1010.939,89.061L1010.939,89.061z"/>
	</g>
</g>
<g transform="matrix(1, 0, 0, 1, -239.17041015625, -42.309417724609375)">
	<g>
		<g>
			<path fill="#778692" d="M762.037,164.817c-2.421,19.373-19.373,43.59-36.325,52.066c6.056-10.897,9.687-21.795,13.32-33.903&#10;&#9;&#9;&#9;&#9;c-24.217,31.482-75.073,29.06-111.397,44.801c-50.855,21.795-13.32,48.434-18.163,85.969&#10;&#9;&#9;&#9;&#9;c-49.645-35.114-42.379-171.938-4.843-208.263c29.06-30.271,140.495-33.577,179.203-2.421&#10;&#9;&#9;&#9;&#9;c49.643,39.958,33.903,161.041-7.265,197.365c-1.211-23.005,8.476-48.433,2.422-70.228&#10;&#9;&#9;&#9;&#9;c-3.633-13.319-12.109-23.005-14.529-36.325C763.248,184.19,764.46,173.293,762.037,164.817"/>
			<g>
				<path d="M703.211,326.64c26.405,0.021,60.691-2.867,74.829-28.92c6.87-12.659,7.453-27.825,7.493-41.879&#10;&#9;&#9;&#9;&#9;&#9;c0.049-16.769-4.17-35.556,0.956-51.877c0.581-1.851-2.315-2.637-2.893-0.798c-4.364,13.895-1.75,29.482-1.23,43.74&#10;&#9;&#9;&#9;&#9;&#9;c0.545,14.986,0.609,30.811-4.912,44.992c-11.205,28.775-47.815,31.763-74.243,31.743&#10;&#9;&#9;&#9;&#9;&#9;C701.276,323.638,701.276,326.638,703.211,326.64L703.211,326.64z"/>
			</g>
			<g>
				<path d="M592.231,215.672c1.746,24.291,0.051,51.726,12.051,73.795c14.251,26.21,48.775,33.319,75.89,36.128&#10;&#9;&#9;&#9;&#9;&#9;c1.924,0.199,1.904-2.803,0-3c-26.813-2.778-59.771-9.762-73.762-35.492c-5.435-9.996-7.377-21.63-8.576-32.808&#10;&#9;&#9;&#9;&#9;&#9;c-1.375-12.83-1.678-25.758-2.603-38.624C595.094,213.754,592.093,213.741,592.231,215.672L592.231,215.672z"/>
			</g>
			<g>
				<path d="M579.052,244.882c-3.055-3.221-7.451-5.951-11.935-3.987c-3.429,1.502-5.454,5.24-6.135,8.768&#10;&#9;&#9;&#9;&#9;&#9;c-0.713,3.69-0.083,7.916,2.78,10.574c3.853,3.578,9.744,2.409,14.144,0.681c1.967-0.772,3.851-1.736,5.685-2.782&#10;&#9;&#9;&#9;&#9;&#9;c1.68-0.958,0.169-3.55-1.514-2.591c-3.94,2.247-10.021,5.527-14.706,3.5c-2.938-1.271-3.808-4.482-3.638-7.431&#10;&#9;&#9;&#9;&#9;&#9;c0.166-2.866,1.513-6.113,4.022-7.682c3.32-2.076,6.923,0.698,9.175,3.071C578.264,248.41,580.382,246.285,579.052,244.882&#10;&#9;&#9;&#9;&#9;&#9;L579.052,244.882z"/>
			</g>
			<g>
				<path d="M793.369,238.528c2.909-2.386,7.242-5.087,11.061-3.145c2.78,1.415,4.082,4.654,4.544,7.566&#10;&#9;&#9;&#9;&#9;&#9;c0.367,2.313,0.128,5.825-1.901,7.387c-3.124,2.404-7.721-1.101-10.071-3.033c-1.481-1.218-3.617,0.892-2.121,2.121&#10;&#9;&#9;&#9;&#9;&#9;c3.489,2.869,8.824,6.445,13.389,3.718c3.34-1.995,4.101-6.558,3.717-10.106c-0.437-4.035-2.354-8.223-6.041-10.244&#10;&#9;&#9;&#9;&#9;&#9;c-5.074-2.781-10.734,0.363-14.696,3.614C789.751,237.635,791.887,239.745,793.369,238.528L793.369,238.528z"/>
			</g>
			<g>
				<path d="M683.098,246.754c-1.278,7.085-3.764,13.784-6.054,20.584c-0.329,0.975,0.526,1.843,1.446,1.899&#10;&#9;&#9;&#9;&#9;&#9;c2.475,0.151,4.811,0.96,7.266,1.211c1.924,0.196,1.905-2.806,0-3c-2.451-0.25-4.789-1.06-7.266-1.211&#10;&#9;&#9;&#9;&#9;&#9;c0.482,0.633,0.964,1.266,1.446,1.899c2.291-6.801,4.776-13.5,6.054-20.584C686.332,245.661,683.44,244.853,683.098,246.754&#10;&#9;&#9;&#9;&#9;&#9;L683.098,246.754z"/>
			</g>
			<g>
				<path d="M703.917,297.087c11.396,0.943,21.335-5.041,25.663-15.631c0.732-1.792-2.171-2.563-2.893-0.798&#10;&#9;&#9;&#9;&#9;&#9;c-3.84,9.397-12.823,14.252-22.771,13.429C701.988,293.927,702.003,296.929,703.917,297.087L703.917,297.087z"/>
			</g>
			<g>
				<path d="M632.189,237.468c0.006,1.757-0.063,5.918,2.312,6.289c0.645,0.101,1.365-0.046,1.694-0.689&#10;&#9;&#9;&#9;&#9;&#9;c1.312-2.562,2.837-4.875,3.783-7.623c0.436-1.267-1.121-2.346-2.203-1.694c-1.277,0.769-2.523,1.607-3.67,2.56&#10;&#9;&#9;&#9;&#9;&#9;c-1.581,1.312-1.752,3.755,0.795,3.867c-0.5-0.5-1-1-1.5-1.5c0.239,2.215,2.31,1.839,3.504,0.655&#10;&#9;&#9;&#9;&#9;&#9;c0.723-0.716,2.235-2.136,2.162-3.271c-0.047-0.734-0.65-1.608-1.5-1.5c-0.562,0.071-0.903,0.246-1.304,0.633&#10;&#9;&#9;&#9;&#9;&#9;c0.486-0.129,0.973-0.257,1.459-0.386c-1.414-0.436-2.715-0.603-3.935,0.343c-0.81,0.628-0.561,1.787-1.158,2.464&#10;&#9;&#9;&#9;&#9;&#9;c-1.273,1.445,0.84,3.576,2.121,2.121c0.516-0.585,0.813-1.218,1.023-1.967c0.029-0.102,0.238-0.611,0.135-0.497&#10;&#9;&#9;&#9;&#9;&#9;c-0.276,0.305,0.655,0.317,1.016,0.428c0.514,0.159,1.082-0.021,1.459-0.386c0.344-0.307,0.072-0.225-0.817,0.246&#10;&#9;&#9;&#9;&#9;&#9;c-0.5-0.5-1-1-1.5-1.5c-0.042-0.649,0.271-0.774-0.064-0.294c-0.155,0.222-0.326,0.43-0.498,0.638&#10;&#9;&#9;&#9;&#9;&#9;c-0.229,0.278-0.471,0.545-0.721,0.805c-0.087,0.089-0.177,0.176-0.27,0.26c-0.042,0.036-0.083,0.072-0.125,0.108&#10;&#9;&#9;&#9;&#9;&#9;c0.582-0.574,1.252-0.208,2.012,1.098c-0.091-0.842-0.615-1.461-1.5-1.5c0.66,0.029,1.196,1.268,0.766,1.789&#10;&#9;&#9;&#9;&#9;&#9;c0.164-0.198,0.367-0.367,0.56-0.535c0.391-0.34,0.824-0.631,1.25-0.924c0.591-0.407,1.198-0.796,1.813-1.166&#10;&#9;&#9;&#9;&#9;&#9;c-0.734-0.565-1.469-1.129-2.203-1.694c-0.858,2.493-2.291,4.582-3.481,6.906c0.565-0.229,1.129-0.459,1.694-0.689&#10;&#9;&#9;&#9;&#9;&#9;c0.437,0.068,0.359,0.42,0.175-0.292c-0.104-0.406-0.152-0.822-0.193-1.238c-0.062-0.619-0.09-1.245-0.092-1.867&#10;&#9;&#9;&#9;&#9;&#9;C635.183,235.534,632.183,235.533,632.189,237.468L632.189,237.468z"/>
			</g>
			<g>
				<path d="M726.001,239.889c-0.026-0.54-0.15-0.876-0.491-1.302c-0.352-0.439-0.962-0.462-1.46-0.386&#10;&#9;&#9;&#9;&#9;&#9;c-1.684,0.258-2.13,3.872-2.253,5.157c-0.178,1.868,1.678,3.343,3.041,1.569c0.72-0.936,0.954-2.566,1.266-3.676&#10;&#9;&#9;&#9;&#9;&#9;c0.208-0.742,0.408-1.486,0.616-2.228c0.07-0.25,0.144-0.5,0.219-0.75c0.179-0.585,0.042-0.025-0.188,0.161&#10;&#9;&#9;&#9;&#9;&#9;c-0.486,0.128-0.974,0.257-1.46,0.386c0.004,0.001,0.007,0.002,0.01,0.003c-0.299-0.23-0.598-0.46-0.896-0.689&#10;&#9;&#9;&#9;&#9;&#9;c-0.063-0.222-0.128-0.444-0.191-0.666c0.5-0.5,1-1,1.5-1.5c-1.697,0.147-3.214,1.546-4.298,2.76&#10;&#9;&#9;&#9;&#9;&#9;c-1.146,1.282-1.414,3.616,0.586,3.872c0-1,0-2,0-3c-2,0.081-2.094,1.991-0.76,2.931c0.727,0.511,1.815,0.756,2.653,1.018&#10;&#9;&#9;&#9;&#9;&#9;c0.919,0.287,1.946,0.607,2.919,0.6c1.635-0.011,2.194-1.771,1.167-2.898c-0.354,0.854-0.704,1.707-1.058,2.561&#10;&#9;&#9;&#9;&#9;&#9;c2.486-0.324,2.549-3.354,2.708-5.322c-0.146,0.354-0.293,0.707-0.439,1.061c0.001,0,0.003-0.001,0.003-0.001&#10;&#9;&#9;&#9;&#9;&#9;c-0.854-0.354-1.707-0.707-2.561-1.061c0.002,0.063,0.001,0.127,0.001,0.191c0.633-0.482,1.266-0.964,1.898-1.446&#10;&#9;&#9;&#9;&#9;&#9;c-1.605-0.397-6.325-1.637-6.688,1.047c-0.183,1.351-0.142,4.475,1.92,4.416c0.645-0.019,1.106-0.308,1.574-0.722&#10;&#9;&#9;&#9;&#9;&#9;c0.181-0.159,0.344-0.338,0.518-0.506c0.301-0.291,0.183-0.109-0.145-0.078c1.909-0.178,1.927-3.18,0-3&#10;&#9;&#9;&#9;&#9;&#9;c-0.858,0.08-1.475,0.472-2.086,1.062c-0.104,0.101-0.688,0.587-0.379,0.381c2.077-1.383,1.733,1.394,1.602,0.324&#10;&#9;&#9;&#9;&#9;&#9;c-0.042-0.342-0.044-0.691-0.054-1.035c0.008,0.294-0.889,0.604-0.476,0.512c-0.203,0.045,0.43,0.009,0.368,0.009&#10;&#9;&#9;&#9;&#9;&#9;c0.403,0.002,0.809,0.051,1.207,0.112c0.617,0.095,1.233,0.221,1.841,0.371c0.942,0.233,1.898-0.452,1.898-1.446&#10;&#9;&#9;&#9;&#9;&#9;c0-0.063,0.001-0.127-0.001-0.191c-0.033-1.253-1.642-2.058-2.561-1.061c-0.499,0.542-0.445,1.254-0.509,1.936&#10;&#9;&#9;&#9;&#9;&#9;c-0.031,0.339-0.087,0.671-0.154,1.005c-0.04,0.198-0.097,0.393-0.154,0.587c-0.157,0.523-0.354-0.01,0.669-0.144&#10;&#9;&#9;&#9;&#9;&#9;c-1.274,0.166-2.015,1.514-1.061,2.561c-0.701-0.77,1.889-2.168,0.761-2.228c-0.161-0.016-0.156-0.015,0.015,0.003&#10;&#9;&#9;&#9;&#9;&#9;c-0.102-0.018-0.202-0.037-0.304-0.059c-0.484-0.098-0.962-0.235-1.436-0.375c-0.483-0.143-0.961-0.304-1.435-0.477&#10;&#9;&#9;&#9;&#9;&#9;c-0.055-0.02-0.638-0.257-0.33-0.123c-0.493-0.214-0.258-0.357,0.104,0.276c0.051,0.385,0.101,0.771,0.151,1.156&#10;&#9;&#9;&#9;&#9;&#9;c0.001-0.007,0.003-0.014,0.004-0.02c-0.229,0.299-0.46,0.598-0.689,0.896c-0.208,0.059-0.417,0.119-0.625,0.178&#10;&#9;&#9;&#9;&#9;&#9;c1.965-0.094,1.896-2.802,0-3c1.076,0.456,1.47,1.019,1.182,1.689c0.029-0.058,0.14-0.231,0.177-0.278&#10;&#9;&#9;&#9;&#9;&#9;c0.289-0.363,0.626-0.688,0.964-1.005c0.258-0.243,0.53-0.469,0.819-0.675c0.188-0.135,0.947-0.402,0.491-0.363&#10;&#9;&#9;&#9;&#9;&#9;c0.793-0.068,1.528-0.63,1.5-1.5c-0.033-0.995-0.889-1.825-1.922-1.541c-0.69,0.19-0.976,0.748-1.186,1.364&#10;&#9;&#9;&#9;&#9;&#9;c-0.371,1.096-0.634,2.233-0.946,3.347c-0.177,0.63-0.359,1.259-0.56,1.883c-0.072,0.224-0.149,0.446-0.231,0.667&#10;&#9;&#9;&#9;&#9;&#9;c-0.139,0.374,0.128-0.271-0.013,0.033c-0.03,0.067-0.067,0.13-0.106,0.192c1.907,1.062,2.749,1.154,2.524,0.275&#10;&#9;&#9;&#9;&#9;&#9;c0.105,0.454,0.024,0.108,0.021-0.02c-0.012-0.345,0.056-0.643,0.134-0.997c0.109-0.499,0.258-0.99,0.416-1.476&#10;&#9;&#9;&#9;&#9;&#9;c-0.036,0.111,0.198-0.553,0.14-0.415c0.26-0.614,0.192,0.187-0.635,0.313c-0.486-0.128-0.973-0.257-1.459-0.386&#10;&#9;&#9;&#9;&#9;&#9;c-0.13-0.273-0.259-0.546-0.388-0.819C723.094,241.814,726.095,241.823,726.001,239.889L726.001,239.889z"/>
			</g>
			<g>
				<path d="M679.411,325.858c-1.148,15.12-10.722,41.763-29.98,39.668c-1.922-0.209-1.902,2.793,0,3&#10;&#9;&#9;&#9;&#9;&#9;c21.084,2.293,31.718-26.037,32.98-42.668C682.558,323.927,679.557,323.941,679.411,325.858L679.411,325.858z"/>
			</g>
			<g>
				<path d="M709.735,326.257c1.564,9.321,3.107,19.247,9.165,26.846c6.979,8.753,19.513,9.691,29.818,9.37&#10;&#9;&#9;&#9;&#9;&#9;c1.93-0.06,1.936-3.061,0-3c-9.912,0.31-20.793-0.491-27.696-8.491c-5.818-6.741-6.979-17.095-8.395-25.522&#10;&#9;&#9;&#9;&#9;&#9;C712.309,323.554,709.418,324.365,709.735,326.257L709.735,326.257z"/>
			</g>
			<path fill="#778692" d="M764.453,109.921c15.739-41.168,111.396-30.271,102.92,20.584c-33.903-12.108-65.385-1.21-96.866-23.005"/>
			<g>
				<path d="M763.64,90.716c-0.651-0.26-2.39-0.375-2.97-0.825c-0.102,0.785-0.202,1.57-0.304,2.356&#10;&#9;&#9;&#9;&#9;&#9;c16.71-10.423,40.597,14.939,27.242,30.337c-1.261,1.454,0.852,3.585,2.121,2.121c15.545-17.922-11.166-47.343-30.877-35.049&#10;&#9;&#9;&#9;&#9;&#9;c-0.739,0.461-1.098,1.738-0.304,2.356c1.389,1.08,2.681,0.954,4.294,1.597C764.642,94.325,765.414,91.423,763.64,90.716&#10;&#9;&#9;&#9;&#9;&#9;L763.64,90.716z"/>
			</g>
			
		</g>
		<path fill="#FF5959" d="M608.33,399.805c17.88-11.92,13.112-36.953,36.953-35.76c2.384,27.416,29.801,27.416,51.257,29.8&#10;&#9;&#9;&#9;c16.688,1.192,25.033,1.192,36.953-10.729c11.921-9.536,13.112-27.416,30.993-23.841c0,0,1.191,34.569,14.304,41.721&#10;&#9;&#9;&#9;c13.111,7.152-35.761,36.954-90.594,26.225C633.363,416.493,608.33,399.805,608.33,399.805z"/>
		<g>
			<path d="M646.041,411.622c-2.065-1.311-3.994-4.435-6.878-2.682c-2.189,1.331-5.017,3.934-4.826,6.807&#10;&#9;&#9;&#9;&#9;c0.302,4.537,7.601,4.017,10.561,3.579c2.672-0.396,9.766-1.735,8.905-5.868c-0.446-2.141-2.79-3.112-4.585-3.868&#10;&#9;&#9;&#9;&#9;c-2.418-1.018-4.887-0.57-5.506-3.462c-1.003-4.682-1.324-9.53-0.556-14.267c-0.734,0.299-1.469,0.598-2.204,0.896&#10;&#9;&#9;&#9;&#9;c6.249,2.952,6.352,10.555,6.409,16.584c0.01,1.039,1.307,2.001,2.257,1.295c4.832-3.587,8.727-3.378,14.34-2.233&#10;&#9;&#9;&#9;&#9;c-0.119-0.914-0.239-1.828-0.358-2.742c-3.573,2.625-5.82,5.854-10.37,7.002c-1.913,0.482-1.068,3.192,0.798,2.893&#10;&#9;&#9;&#9;&#9;c4.158-0.668,10.634,0.235,9.687,5.944c-1.082,6.515-8.013,1.189-10.218-1.299c-0.974-1.099-3.021,0.051-2.507,1.459&#10;&#9;&#9;&#9;&#9;c0.779,2.136,2.276,5.778,0.615,7.886c-1.895,2.405-4.741-6.865-4.874-7.492c-0.232-1.094-1.764-1.461-2.507-0.662&#10;&#9;&#9;&#9;&#9;c-2.227,2.397-4.885,4.208-8.209,4.563c-5.594,0.599-2.171-5.084-0.398-7.21c0.744-0.891,0.375-2.698-1.061-2.561&#10;&#9;&#9;&#9;&#9;c-3.289,0.315-12.106-0.018-7.188-5.027c4.451-4.532,12.187-3,17.159-0.522c1.726,0.86,3.246-1.728,1.514-2.591&#10;&#9;&#9;&#9;&#9;c-6.498-3.238-17.051-4.739-21.92,2.28c-5.144,7.415,5.235,9.358,10.436,8.86c-0.354-0.854-0.707-1.707-1.061-2.561&#10;&#9;&#9;&#9;&#9;c-2.669,3.2-6.186,8.736-1.24,11.644c4.659,2.739,11.049-1.482,14.089-4.755c-0.835-0.221-1.671-0.441-2.507-0.662&#10;&#9;&#9;&#9;&#9;c0.701,3.296,2.932,10.931,7.849,9.878c5.239-1.123,3.427-8.492,2.196-11.868c-0.835,0.487-1.671,0.973-2.507,1.459&#10;&#9;&#9;&#9;&#9;c4.09,4.615,12.338,8.648,15.104,0.486c2.849-8.407-7.148-11.125-13.25-10.145c0.266,0.964,0.532,1.928,0.798,2.893&#10;&#9;&#9;&#9;&#9;c4.931-1.243,7.176-4.431,11.086-7.304c0.945-0.695,1.045-2.456-0.358-2.742c-6.478-1.321-11.124-1.568-16.652,2.535&#10;&#9;&#9;&#9;&#9;c0.752,0.432,1.504,0.864,2.257,1.295c-0.068-7.104-0.622-15.739-7.895-19.175c-0.788-0.372-2.037-0.135-2.204,0.896&#10;&#9;&#9;&#9;&#9;c-1.021,6.302-0.278,12.508,1.191,18.678c0.116,0.486,0.558,0.936,1.047,1.047c0.574,0.131,8.965,2.452,8.282,3.293&#10;&#9;&#9;&#9;&#9;c-1.272,1.563-4.261,1.949-6.099,2.266c-2.124,0.366-4.953,0.61-6.939-0.404c-0.823-0.42-0.208-1.221,0.141-1.786&#10;&#9;&#9;&#9;&#9;c2.314-3.74,4.313-1.421,6.642,0.057C646.166,415.252,647.669,412.655,646.041,411.622L646.041,411.622z"/>
		</g>
		<g>
			<path d="M572.427,396.14c12.757-3.694,23.858-11.662,36.953-14.305c1.896-0.382,1.091-3.274-0.798-2.893&#10;&#9;&#9;&#9;&#9;c-13.109,2.645-24.193,10.61-36.953,14.305C569.775,393.784,570.564,396.679,572.427,396.14L572.427,396.14z"/>
		</g>
		<g>
			<path d="M788.887,372.299c10.929-2.108,21.327,9.083,31.388,11.92c1.865,0.526,2.656-2.368,0.797-2.893&#10;&#9;&#9;&#9;&#9;c-10.886-3.071-20.939-14.244-32.981-11.92C786.191,369.772,786.997,372.664,788.887,372.299L788.887,372.299z"/>
		</g>
	</g>
	<g>
		<path d="M812,107.5c16.703,0.166,30.175,6.375,44.243,14.795c1.664,0.996,3.172-1.599,1.514-2.591&#10;&#9;&#9;&#9;c-14.532-8.698-28.529-15.033-45.757-15.205C810.064,104.481,810.066,107.481,812,107.5L812,107.5z"/>
	</g>
	<g>
		<path d="M829.602,101.446c7.784,2.06,15.062,5.544,21.338,10.614c1.49,1.204,3.627-0.905,2.121-2.121&#10;&#9;&#9;&#9;c-6.691-5.406-14.353-9.187-22.662-11.386C828.526,98.058,827.732,100.952,829.602,101.446L829.602,101.446z"/>
	</g>
</g>
<g transform="matrix(1, 0, 0, 1, -129.17041015625, -43.45291554927826)">
	<g>
		<g>
			<path fill="#7ADED4" d="M417.087,118.197c3.934,10.817,11.801,28.518,10.817,43.269c-0.983,13.768-11.8,46.22-28.519,45.237&#10;&#9;&#9;&#9;&#9;c-3.934-22.618,10.818-45.237,2.95-67.855c-19.668,15.735-15.734,33.436-18.684,55.07c-2.95,22.619-18.685,28.519-38.353,33.436&#10;&#9;&#9;&#9;&#9;c-36.386,8.851-87.522-9.834-97.356,38.352c-6.884-5.9-13.767-12.784-20.651-18.685c0,2.951-0.983,4.918-0.983,6.884&#10;&#9;&#9;&#9;&#9;c-12.785-1.966-20.652,2.951-17.701,15.734c1.966,11.801,11.801,13.768,18.685,18.685c7.866,4.917,18.685,12.784,22.618,21.635&#10;&#9;&#9;&#9;&#9;c2.95,7.867,2.95,22.618-8.851,22.618c-3.933,0-23.602-17.701-29.502-20.651c-11.801-6.884-24.585-12.784-34.418-22.618&#10;&#9;&#9;&#9;&#9;c-20.652-18.685-29.502-44.253-32.453-71.788c-3.934-50.153,20.651-97.357,69.821-113.091&#10;&#9;&#9;&#9;&#9;c43.27-13.768,88.833-27.208,133.086-37.042c30.485-6.884,44.909-0.327,62.937,39.336" style="fill: rgb(71, 129, 123);"/>
			<g>
				<path d="M404.225,169.256c-4.822,5.323-4.657,14.584-4.832,21.284c-0.255,9.76,0.544,19.536,1.313,29.257&#10;&#9;&#9;&#9;&#9;&#9;c2.057,26.007,15.775,55.101-1.152,78.904c-13.077,18.388-39.951,17.722-59.781,14.907&#10;&#9;&#9;&#9;&#9;&#9;c-13.793-1.958-29.938-4.969-34.743,11.776c-2.001,6.973-1.622,14.59-1.701,21.772c-0.048,4.41-1.216,13.57,2.556,16.966&#10;&#9;&#9;&#9;&#9;&#9;c1.433,1.291,3.562-0.824,2.121-2.121c-2.497-2.248-1.657-9.333-1.683-12.352c-0.043-5.045,0.003-10.146,0.31-15.182&#10;&#9;&#9;&#9;&#9;&#9;c0.536-8.803,3.177-18.089,13.082-19.418c8.378-1.125,17.304,1.251,25.583,2.309c10.103,1.291,20.627,1.076,30.598-1.039&#10;&#9;&#9;&#9;&#9;&#9;c21.042-4.463,33.425-21.177,35.098-42.195c1.107-13.905-3.379-27.865-5.808-41.404c-1.875-10.453-2.292-21.438-2.694-32.045&#10;&#9;&#9;&#9;&#9;&#9;c-0.204-5.374-0.2-10.759,0.187-16.125c0.301-4.17,0.696-9.895,3.667-13.175C407.641,169.948,405.526,167.819,404.225,169.256&#10;&#9;&#9;&#9;&#9;&#9;L404.225,169.256z" style="fill: rgb(71, 129, 123);"/>
			</g>
			<g>
				<path d="M219.891,232.271c0.364,6.904,2.535,14.618,4.971,21.05c0.734-0.565,1.469-1.129,2.203-1.694&#10;&#9;&#9;&#9;&#9;&#9;c-12.208-6.048-19.596,5.605-19.344,16.784c0.12,5.316,2.02,10.734,6.352,14.018c5.385,4.082,12.774,1.322,17.909-1.659&#10;&#9;&#9;&#9;&#9;&#9;c1.671-0.971,0.162-3.564-1.515-2.591c-4.495,2.61-10.112,4.868-14.88,1.66c-3.548-2.388-4.671-7.46-4.866-11.427&#10;&#9;&#9;&#9;&#9;&#9;c-0.425-8.684,4.894-19.116,14.83-14.193c1.06,0.525,2.711-0.354,2.203-1.694c-2.334-6.164-4.514-13.638-4.863-20.252&#10;&#9;&#9;&#9;&#9;&#9;C222.789,230.347,219.789,230.337,219.891,232.271L219.891,232.271z" style="fill: rgb(71, 129, 123);"/>
			</g>
			<g>
				<path d="M226.773,284.391c-0.771,5.992,3.233,9.697,7.873,12.728c3.065,2.002,6.345,3.634,9.071,6.117&#10;&#9;&#9;&#9;&#9;&#9;c2.351,2.143,2.871,5.138,3.248,8.141c1.542,12.275,0.825,26.33-1.453,38.503c-0.354,1.891,2.537,2.698,2.893,0.798&#10;&#9;&#9;&#9;&#9;&#9;c2.253-12.039,2.661-25.252,1.745-37.428c-0.407-5.409-1.431-9.837-5.773-13.398c-5.263-4.316-15.688-7.03-14.603-15.46&#10;&#9;&#9;&#9;&#9;&#9;C230.02,282.476,227.017,282.5,226.773,284.391L226.773,284.391z" style="fill: rgb(71, 129, 123);"/>
			</g>
			<g>
				<path d="M384.118,235.221c0.345,6.941,2.814,13.649,2.95,20.652c0.367-0.482,0.734-0.964,1.101-1.446&#10;&#9;&#9;&#9;&#9;&#9;c-4.253,0.927-8.716,0.927-12.97,0c-1.886-0.411-2.688,2.481-0.798,2.893c4.798,1.046,9.767,1.046,14.565,0&#10;&#9;&#9;&#9;&#9;&#9;c0.638-0.139,1.113-0.808,1.101-1.446c-0.135-7-2.606-13.72-2.95-20.652C387.022,233.296,384.022,233.287,384.118,235.221&#10;&#9;&#9;&#9;&#9;&#9;L384.118,235.221z" style="fill: rgb(71, 129, 123);"/>
			</g>
			
			<g>
				<path d="M219.027,267.154c1.828,0.331,3.95,0.802,5.127,2.384c1.163,1.564,0.987,3.795,0.709,5.605&#10;&#9;&#9;&#9;&#9;&#9;c0.835-0.22,1.671-0.441,2.507-0.662c-1.35-1.09-1.439-1.365-0.57-2.736c0.609-0.963,0.932-1.954,1.01-3.087&#10;&#9;&#9;&#9;&#9;&#9;c0.133-1.932-2.868-1.919-3,0c-0.098,1.417-1.38,2.443-1.681,3.828c-0.376,1.738,0.877,3.113,2.12,4.117&#10;&#9;&#9;&#9;&#9;&#9;c0.767,0.62,2.317,0.575,2.507-0.662c0.415-2.705,0.526-5.525-1.012-7.917c-1.501-2.334-4.327-3.294-6.92-3.763&#10;&#9;&#9;&#9;&#9;&#9;C217.934,263.919,217.125,266.81,219.027,267.154L219.027,267.154z" style="fill: rgb(71, 129, 123);"/>
			</g>
			
			<g>
				<path d="M324.963,240.367c-0.443-0.839-1.184-1.332-2.15-1.141c-0.844,0.167-1.24,1.097-1.38,1.844&#10;&#9;&#9;&#9;&#9;&#9;c-0.246,1.307-0.249,2.663-0.249,3.988c0,0.936,0.965,1.758,1.899,1.446c0.983-0.328,1.967-0.655,2.95-0.983&#10;&#9;&#9;&#9;&#9;&#9;c-0.633-0.482-1.266-0.964-1.899-1.446c0.007,0.291,0.048,0.64,0.224,0.887c0.288,0.402,0.752,0.804,1.295,0.743&#10;&#9;&#9;&#9;&#9;&#9;c1.295-0.146,1.528-1.165,1.797-2.221c0.102-0.4,0.2-0.8,0.302-1.2c0.042-0.166,0.087-0.331,0.134-0.496&#10;&#9;&#9;&#9;&#9;&#9;c0.152-0.538-0.041,0.057-0.238,0.269c-0.354,0.146-0.707,0.293-1.061,0.439c0.003,0,0.007-0.001,0.01-0.001&#10;&#9;&#9;&#9;&#9;&#9;c-0.432-0.248-0.863-0.557-1.295-0.805c-0.135-0.707-0.197-0.689-0.186-0.689c1,0,2,0,3,0c-0.249-2-2.901-1.729-4.412-1.016&#10;&#9;&#9;&#9;&#9;&#9;c-0.671,0.317-1.456,0.882-1.764,1.584c-0.485,1.107-0.096,2.22,0.968,2.802c0.594,0.324,1.332,0.26,1.818-0.227&#10;&#9;&#9;&#9;&#9;&#9;c0.596-0.597,1.439-1.362,1.124-2.316c-0.343-1.038-1.219-1.22-2.184-1.222c-1.935-0.003-1.935,2.998,0,3.001&#10;&#9;&#9;&#9;&#9;&#9;c0.121,0,0.241,0.001,0.361,0.003c0.317,0.025,0.185-0.018-0.396-0.13c-0.23-0.299-0.439-0.597-0.669-0.896&#10;&#9;&#9;&#9;&#9;&#9;c0.005,0.015,0.036,0.03,0.036,0.045c0-0.266,0-0.531,0-0.797c0-0.453,0.331-0.556,0.125-0.308&#10;&#9;&#9;&#9;&#9;&#9;c-0.157,0.176-0.341,0.339-0.507,0.506c0.606-0.078,1.207-0.156,1.812-0.235c-0.154-0.093-0.148-0.076,0.023,0.052&#10;&#9;&#9;&#9;&#9;&#9;c0.1,0.115,0.17,0.247,0.211,0.395c0.081,0.292,0.047,0.558-0.1,0.8c0.078-0.128,0.05-0.1-0.085,0.087&#10;&#9;&#9;&#9;&#9;&#9;c0.056-0.068,0.399-0.34,0.096-0.116c0.166-0.123,0.348-0.222,0.529-0.318c0.077-0.04,0.155-0.077,0.233-0.113&#10;&#9;&#9;&#9;&#9;&#9;c-0.159,0.063-0.159,0.064,0.001,0c0.192-0.075,0.39-0.134,0.59-0.187c0.428-0.113-0.1-0.015,0.121-0.035&#10;&#9;&#9;&#9;&#9;&#9;c0.058-0.004,0.116-0.005,0.173-0.002c-0.62-0.009-1.041-0.6-1.105-1.233c0.083,0.813,0.619,1.5,1.5,1.5&#10;&#9;&#9;&#9;&#9;&#9;c0.803,0,1.519-0.682,1.5-1.5c-0.007-0.291-0.048-0.64-0.224-0.887c-0.288-0.402-0.752-0.804-1.295-0.743&#10;&#9;&#9;&#9;&#9;&#9;c-1.295,0.146-1.528,1.165-1.797,2.221c-0.102,0.4-0.2,0.8-0.302,1.2c-0.042,0.166-0.087,0.331-0.134,0.496&#10;&#9;&#9;&#9;&#9;&#9;c-0.152,0.538,0.041-0.057,0.238-0.269c0.354-0.146,0.707-0.293,1.061-0.439c-0.003,0-0.007,0.001-0.01,0.001&#10;&#9;&#9;&#9;&#9;&#9;c0.432,0.248,0.863,0.495,1.295,0.743c0.135,0.707,0.197,0.916,0.186,0.627c-0.022-0.931-0.949-1.763-1.899-1.446&#10;&#9;&#9;&#9;&#9;&#9;c-0.983,0.328-1.967,0.655-2.95,0.983c0.633,0.482,1.266,0.964,1.899,1.446c0-0.782,0.014-1.564,0.061-2.346&#10;&#9;&#9;&#9;&#9;&#9;c0.012-0.196,0.029-0.392,0.047-0.587c0.009-0.092,0.019-0.185,0.031-0.276c-0.042,0.353,0.014-0.04,0.024-0.096&#10;&#9;&#9;&#9;&#9;&#9;c0.028-0.15,0.236-0.629,0.013-0.169c-0.404,0.604-1.063,0.686-1.979,0.247c-0.281-0.268-0.081-0.086-0.009,0.051&#10;&#9;&#9;&#9;&#9;&#9;C323.275,243.592,325.865,242.076,324.963,240.367L324.963,240.367z" style="fill: rgb(71, 129, 123);"/>
			</g>
			<g>
				<path d="M393.822,223.364c-0.443-0.838-1.184-1.332-2.15-1.141c-0.843,0.167-1.239,1.098-1.38,1.844&#10;&#9;&#9;&#9;&#9;&#9;c-0.246,1.307-0.249,2.663-0.249,3.988c0,0.936,0.965,1.757,1.899,1.446c0.983-0.327,1.967-0.655,2.951-0.982&#10;&#9;&#9;&#9;&#9;&#9;c-0.633-0.482-1.266-0.964-1.899-1.446c0.007,0.291,0.048,0.641,0.224,0.887c0.287,0.4,0.753,0.807,1.295,0.743&#10;&#9;&#9;&#9;&#9;&#9;c1.295-0.152,1.527-1.161,1.796-2.222c0.102-0.399,0.2-0.8,0.302-1.2c0.043-0.166,0.087-0.331,0.134-0.496&#10;&#9;&#9;&#9;&#9;&#9;c0.152-0.538-0.041,0.057-0.238,0.269c-0.354,0.146-0.707,0.293-1.061,0.439c0.003,0,0.007-0.001,0.01-0.001&#10;&#9;&#9;&#9;&#9;&#9;c-0.432-0.248-0.863-0.556-1.295-0.803c-0.135-0.707-0.197-0.688-0.186-0.688c1,0,2,0,3,0c-0.249-2-2.901-1.729-4.411-1.017&#10;&#9;&#9;&#9;&#9;&#9;c-0.671,0.316-1.457,0.881-1.764,1.584c-0.484,1.107-0.096,2.22,0.968,2.802c0.594,0.324,1.332,0.26,1.818-0.228&#10;&#9;&#9;&#9;&#9;&#9;c0.596-0.597,1.439-1.362,1.124-2.316c-0.343-1.038-1.219-1.22-2.184-1.222c-1.935-0.003-1.935,2.998,0,3.001&#10;&#9;&#9;&#9;&#9;&#9;c0.121,0,0.241,0.001,0.361,0.003c0.317,0.025,0.185-0.018-0.396-0.13c-0.23-0.299-0.369-0.597-0.599-0.896&#10;&#9;&#9;&#9;&#9;&#9;c0.005,0.015,0.106,0.03,0.106,0.045c0-0.266,0-0.531,0-0.797c0-0.453,0.261-0.556,0.054-0.308&#10;&#9;&#9;&#9;&#9;&#9;c-0.157,0.176-0.376,0.339-0.542,0.506c0.606-0.078,1.189-0.156,1.795-0.235c-0.154-0.093-0.157-0.076,0.014,0.052&#10;&#9;&#9;&#9;&#9;&#9;c0.1,0.115,0.166,0.247,0.207,0.395c0.081,0.292,0.045,0.558-0.102,0.8c0.078-0.129,0.048-0.1-0.086,0.087&#10;&#9;&#9;&#9;&#9;&#9;c0.056-0.068,0.398-0.34,0.095-0.116c0.166-0.123,0.348-0.222,0.53-0.319c0.077-0.04,0.154-0.077,0.233-0.113&#10;&#9;&#9;&#9;&#9;&#9;c-0.16,0.064-0.159,0.064,0.001,0.001c0.192-0.076,0.39-0.135,0.59-0.188c0.428-0.113-0.1-0.014,0.121-0.035&#10;&#9;&#9;&#9;&#9;&#9;c0.058-0.004,0.116-0.005,0.173-0.002c-0.62-0.009-1.041-0.601-1.105-1.233c0.083,0.813,0.619,1.5,1.5,1.5&#10;&#9;&#9;&#9;&#9;&#9;c0.803,0,1.519-0.682,1.5-1.5c-0.007-0.292-0.048-0.64-0.224-0.887c-0.287-0.402-0.752-0.804-1.295-0.743&#10;&#9;&#9;&#9;&#9;&#9;c-1.295,0.146-1.528,1.165-1.797,2.221c-0.102,0.4-0.199,0.8-0.302,1.2c-0.043,0.166-0.087,0.331-0.134,0.496&#10;&#9;&#9;&#9;&#9;&#9;c-0.152,0.538,0.041,0.093,0.238-0.118c0.354-0.146,0.707-0.29,1.061-0.29c-0.003,0-0.007,0-0.01,0&#10;&#9;&#9;&#9;&#9;&#9;c0.432,0,0.863,0.347,1.295,0.594c0.135,0.707,0.197,0.841,0.186,0.553c-0.022-0.932-0.949-1.8-1.899-1.484&#10;&#9;&#9;&#9;&#9;&#9;c-0.983,0.327-1.967,0.636-2.951,0.964c0.633,0.482,1.266,0.955,1.899,1.437c0-0.782,0.014-1.569,0.061-2.35&#10;&#9;&#9;&#9;&#9;&#9;c0.012-0.196,0.029-0.394,0.047-0.59c0.009-0.092,0.019-0.186,0.031-0.278c-0.042,0.353,0.014-0.04,0.024-0.097&#10;&#9;&#9;&#9;&#9;&#9;c0.028-0.15,0.236-0.629,0.013-0.169c-0.404,0.604-1.064,0.685-1.979,0.246c-0.281-0.268-0.081-0.086-0.009,0.051&#10;&#9;&#9;&#9;&#9;&#9;C392.135,226.59,394.725,225.074,393.822,223.364L393.822,223.364z" style="fill: rgb(71, 129, 123);"/>
			</g>
			<g>
				<path fill="#FFFEFD" d="M312.093,277.822c10.016,4.783,20.109,9.518,31.09,11.583c12.956,2.436,26.23,0.421,38.905-2.582&#10;&#9;&#9;&#9;&#9;&#9;c1.882-0.446,1.083-3.338-0.798-2.893c-12.255,2.903-24.781,4.699-37.309,2.581c-10.713-1.811-20.656-6.64-30.373-11.281&#10;&#9;&#9;&#9;&#9;&#9;C311.871,274.402,310.348,276.988,312.093,277.822L312.093,277.822z" style="fill: rgb(71, 129, 123);"/>
			</g>
			
			
		</g>
		<path fill="#C4A0D8" d="M219.636,355.731c-14.026,6.375-42.079,12.75-54.83,26.777c-31.877,31.877,19.127,35.703,42.079,36.978&#10;&#9;&#9;&#9;c34.428,1.274,66.305-2.55,99.458-3.825c19.126-1.276,87.982,6.375,62.48-24.228c-8.926-11.476-34.428-26.777-48.455-30.603&#10;&#9;&#9;&#9;c-10.201,25.502-21.676,30.603-49.729,28.053c-22.952-2.551-44.628-15.302-53.554-30.603"/>
		<path fill="#778692" d="M238.761,349.355c-1.275,0-2.55,1.275-5.101,0c-15.301,35.703,105.833,47.179,80.332,3.825&#10;&#9;&#9;&#9;c15.301,8.926,16.577,34.428,2.55,43.354s-44.628,3.825-59.93,1.275c-14.027-2.551-36.979-5.101-44.628-19.127&#10;&#9;&#9;&#9;c-7.651-14.026,1.274-28.052,16.576-28.052"/>
		<g>
			<path d="M231.629,359.535c-7.881,5.425-14.339,12.912-15.99,22.574c-0.323,1.892,2.567,2.702,2.893,0.798&#10;&#9;&#9;&#9;&#9;c1.521-8.902,7.334-15.773,14.612-20.781C234.726,361.037,233.228,358.436,231.629,359.535L231.629,359.535z"/>
		</g>
		<g>
			<path d="M243.637,371.032c-0.157,7.131-2.067,14.382-3.771,21.277c-0.464,1.878,2.429,2.675,2.893,0.798&#10;&#9;&#9;&#9;&#9;c1.769-7.157,3.716-14.669,3.878-22.075C246.68,369.097,243.68,369.101,243.637,371.032L243.637,371.032z"/>
		</g>
		<g>
			<path d="M262.969,379.26c4.062,5.994,3.617,13.74,3.621,20.74c0.001,2,3.001,2,3,0c-0.004-7,0.335-15.902-4.03-22.345&#10;&#9;&#9;&#9;&#9;C264.481,376.064,261.88,377.653,262.969,379.26L262.969,379.26z"/>
		</g>
		<g>
			<path d="M290.642,381.404c7.084,1.738,8.988,10.088,9.101,16.406c0.035,1.932,3.035,1.936,3,0&#10;&#9;&#9;&#9;&#9;c-0.138-7.692-2.84-17.222-11.303-19.298C289.561,378.05,288.764,380.943,290.642,381.404L290.642,381.404z"/>
		</g>
		<g>
			<path d="M311.842,377.579c7.057-0.972,11.33,4.356,13.456,10.429c0.635,1.813,3.534,1.033,2.893-0.798&#10;&#9;&#9;&#9;&#9;c-2.744-7.84-8.325-13.738-17.146-12.523C309.135,374.949,309.951,377.839,311.842,377.579L311.842,377.579z"/>
		</g>
	</g>
	<g>
		<path d="M391.939,107.061c11.32,8.82,11.528,26.864,11.561,39.939c0.005,1.935,3.005,1.935,3,0&#10;&#9;&#9;&#9;c-0.034-13.814-0.474-32.739-12.439-42.061C392.554,103.766,390.415,105.873,391.939,107.061L391.939,107.061z"/>
	</g>
</g>
<g transform="matrix(1, 0, 0, 1, 534.035888671875, -527.1524658203125)">
	<g>
		<path fill="#778692" d="M1018.53,621.184c-5.739,97.577,124.844,91.839,189.418,93.273c5.74,18.654-11.479,37.31-10.045,55.964&#10;&#9;&#9;&#9;c20.09,0,35.922-58.259,41.663-12.34c2.869,24.395-8.15,12.26-22.499,17.999c-12.916,5.739-10.555,18.735-20.599,31.65&#10;&#9;&#9;&#9;c25.83,10.045,68.879-37.31,77.49-58.835c5.739-12.915,11.478-33.003,10.043-47.354c-2.868-15.783-12.914-22.959-14.35-37.309&#10;&#9;&#9;&#9;c-5.739-37.309,5.74-67.444-43.049-83.228c-30.135-8.611-61.704,1.434-91.839-12.916c-18.654-7.175-28.699-20.089-43.05-31.57&#10;&#9;&#9;&#9;c-14.35,12.915-1.435,21.524,7.176,34.438c-7.176-2.868-27.266-25.828-34.441-21.523c-8.608,5.74,8.611,28.699,11.481,34.438&#10;&#9;&#9;&#9;c-17.222,4.308-18.655-25.829-35.875-22.958c-24.395,4.304,2.87,27.266,1.435,37.309c0,28.701-18.654-17.218-31.568-7.175&#10;&#9;&#9;&#9;c-11.481,8.611,2.869,14.35,4.305,21.526" style="fill: rgb(86, 96, 105);"/>
		<g>
			<path d="M1046.311,690.731c-0.88,13.81-3.131,27.449-5.153,41.123c-1.75,11.833-4.362,24.658-2.548,36.603&#10;&#9;&#9;&#9;&#9;c3.182,20.952,17.607,37.947,33.991,50.438c7.681,5.854,16.757,8.797,26.35,9.043c10.008,0.257,19.943-2.2,29.929-2.633&#10;&#9;&#9;&#9;&#9;c10.923-0.474,20.923,1.332,27.829,10.446c5.563,7.342,7.923,16.823,10.178,25.588c0.481,1.873,3.375,1.078,2.893-0.797&#10;&#9;&#9;&#9;&#9;c-3.845-14.944-9.126-32.288-25.674-37.066c-19.507-5.632-39.769,5.885-59.221-1.118c-10.785-3.883-20.009-13.146-27.396-21.629&#10;&#9;&#9;&#9;&#9;c-7.509-8.621-13.111-18.854-15.486-30.071c-2.716-12.83,0.44-27.138,2.325-39.879c1.97-13.317,4.126-26.598,4.983-40.047&#10;&#9;&#9;&#9;&#9;C1049.434,688.799,1046.433,688.811,1046.311,690.731L1046.311,690.731z"/>
		</g>
		<g>
			<path d="M1224.862,751.027c0.594-3.081,1.975-8.411,5.856-5.332c3.709,2.941,5.909,8.009,7.324,12.385&#10;&#9;&#9;&#9;&#9;c1.324,4.092,2.436,9.506,0.139,13.458c-3.24,5.576-12.617,1.455-16.731-0.425c-1.746-0.798-3.271,1.787-1.514,2.59&#10;&#9;&#9;&#9;&#9;c5.717,2.613,15.25,6.374,20.182,0.266c3.778-4.681,2.343-11.974,0.658-17.179c-1.672-5.169-4.642-11.579-9.598-14.374&#10;&#9;&#9;&#9;&#9;c-5.541-3.125-8.373,3.477-9.209,7.814C1221.605,752.12,1224.496,752.926,1224.862,751.027L1224.862,751.027z"/>
		</g>
		<g>
			<path d="M1083.27,745.786c-2.979,7.021-7.697,13.01-12.251,19.059c-0.616,0.817,0.067,1.929,0.896,2.203&#10;&#9;&#9;&#9;&#9;c4.163,1.381,8.244,2.601,12.649,2.776c1.936,0.077,1.928-2.923,0-3c-4.139-0.165-7.954-1.376-11.853-2.669&#10;&#9;&#9;&#9;&#9;c0.299,0.734,0.598,1.469,0.896,2.203c4.555-6.049,9.272-12.037,12.251-19.059C1086.605,745.541,1084.022,744.01,1083.27,745.786&#10;&#9;&#9;&#9;&#9;L1083.27,745.786z"/>
		</g>
		<g>
			<path d="M1144.527,781.181c-7.27,13.523-27.043,16.126-38.482,6.502c-1.47-1.237-3.604,0.874-2.121,2.121&#10;&#9;&#9;&#9;&#9;c12.854,10.813,34.953,8.222,43.193-7.109C1148.033,780.991,1145.443,779.476,1144.527,781.181L1144.527,781.181z"/>
		</g>
		
		
		<g>
			<path d="M1215.917,781.905c-26.73,4.132-23.237,43.714-8.829,58.657c1.345,1.395,3.464-0.729,2.121-2.121&#10;&#9;&#9;&#9;&#9;c-12.969-13.45-16.827-49.883,7.505-53.644C1218.621,784.503,1217.809,781.612,1215.917,781.905L1215.917,781.905z"/>
		</g>
		<path fill="#7ADED4" d="M1163.228,853.793c-18.376-12.251-27.564,23.482-43.898,32.67c19.396,3.063,19.396,22.46,35.731,2.042&#10;&#9;&#9;&#9;c7.146-9.188,14.293-22.462,10.208-32.67"/>
		<path fill="#7ADED4" d="M1204.064,836.438c4.084-5.105,14.293,12.25-4.084,25.522c-10.209,7.146-25.522,10.21-34.712,19.396&#10;&#9;&#9;&#9;c-11.229,11.23-3.062,18.378-4.082,33.691c11.23-2.043,19.397-15.313,28.585-21.44c9.188-5.104,21.439-8.167,29.606-16.333&#10;&#9;&#9;&#9;c18.376-17.355,7.146-38.796-12.25-45.942"/>
		<g>
			<path d="M1225.902,863.407c21.444-6.368,46.465,1.443,66.582,9.188c1.808,0.696,2.583-2.205,0.797-2.893&#10;&#9;&#9;&#9;&#9;c-20.602-7.933-46.202-15.715-68.176-9.188C1223.255,861.064,1224.043,863.96,1225.902,863.407L1225.902,863.407z"/>
		</g>
		<g>
			<path d="M1145.873,857.398c-18.971,0.955-38.181-0.695-56.549,5.158c-1.836,0.585-1.052,3.481,0.797,2.893&#10;&#9;&#9;&#9;&#9;c18.114-5.772,37.049-4.109,55.752-5.051C1147.798,860.302,1147.808,857.301,1145.873,857.398L1145.873,857.398z"/>
		</g>
		<g>
			<path d="M1264.626,679.646c7.713-7.795,14.972-16.55,16.885-27.66c0.326-1.892-2.564-2.701-2.893-0.797&#10;&#9;&#9;&#9;&#9;c-1.832,10.639-8.73,18.874-16.113,26.336C1261.144,678.9,1263.264,681.022,1264.626,679.646L1264.626,679.646z"/>
		</g>
		<g>
			<path d="M1270.625,688.646c5.152-4.864,12.029-7.172,18.837-8.614c1.893-0.4,1.09-3.293-0.797-2.893&#10;&#9;&#9;&#9;&#9;c-7.322,1.552-14.632,4.165-20.161,9.386C1267.095,687.854,1269.22,689.973,1270.625,688.646L1270.625,688.646z"/>
		</g>
		<g>
			<path d="M1222.325,765.377c2.85-1.527,3.982-4.72,7.141-5.849c-0.633-0.482-1.266-0.964-1.898-1.446&#10;&#9;&#9;&#9;&#9;c-0.013,0.933-0.071,1.824-0.329,2.723c-0.071,0.247-0.479,0.737-0.241,0.64c-0.046,0.019,0.124,0.025,0.184,0.078&#10;&#9;&#9;&#9;&#9;c0.072,0.065,0.083,0.194,0.047,0.056c0.053,0.2,0.044,0.403-0.1,0.564c1.282-1.438-0.831-3.568-2.121-2.121&#10;&#9;&#9;&#9;&#9;c-1.344,1.507-0.63,4.036,1.473,4.375c3.443,0.556,4.055-3.885,4.088-6.314c0.013-0.923-0.978-1.775-1.898-1.446&#10;&#9;&#9;&#9;&#9;c-1.764,0.63-3.278,1.527-4.559,2.904c-1.08,1.162-1.863,2.478-3.299,3.247C1219.105,763.701,1220.621,766.291,1222.325,765.377&#10;&#9;&#9;&#9;&#9;L1222.325,765.377z"/>
		</g>
		<g>
			<path d="M1207.863,721.341c4.002-5.183,9.2-9.551,15.603-11.311c1.863-0.512,1.071-3.406-0.797-2.893&#10;&#9;&#9;&#9;&#9;c-7.204,1.979-12.905,6.873-17.396,12.689C1204.091,721.358,1206.699,722.849,1207.863,721.341L1207.863,721.341z"/>
		</g>
	</g>
	
	<g>
		<path d="M1038.939,607.061c4.763,4.628,10.406,8.229,16.304,11.234c1.72,0.877,3.238-1.711,1.514-2.59&#10;&#9;&#9;&#9;c-5.675-2.894-11.111-6.311-15.696-10.766C1039.673,603.591,1037.55,605.711,1038.939,607.061L1038.939,607.061z"/>
	</g>
	<g>
		<path d="M1072.939,583.061c3.256,4.21,7.576,7.788,12.304,10.234c1.715,0.888,3.232-1.7,1.514-2.59&#10;&#9;&#9;&#9;c-4.531-2.346-8.575-5.73-11.696-9.766C1073.878,579.411,1071.771,581.551,1072.939,583.061L1072.939,583.061z"/>
	</g>
	<g>
		<path d="M1097.602,567.446c5.73,1.379,10.138,5.814,16,7c1.889,0.382,2.692-2.51,0.797-2.893c-5.845-1.183-10.249-5.616-16-7&#10;&#9;&#9;&#9;C1096.519,564.102,1095.721,566.994,1097.602,567.446L1097.602,567.446z"/>
	</g>
</g>
<g transform="matrix(1, 0, 0, 1, 1084.035888671875, -527.1524658203125)">
	<g>
		<path fill="#FF5959" d="M352.167,654.293c-1.135,13.735-18.16,18.314-27.239,10.302c-5.675,16.024-24.971,14.88-36.321,4.578&#10;&#9;&#9;&#9;c2.271,18.313-21.564,28.615-35.184,18.313c-2.271,17.17-20.431,17.17-32.917,12.591c-2.269,6.868-11.348,9.157-12.483,12.591&#10;&#9;&#9;&#9;c-2.271,5.723-1.136,10.302-1.136,17.17c0,14.879,1.136,22.892,7.945,35.482c15.891,29.76,32.915,30.904,62.425,32.049&#10;&#9;&#9;&#9;c5.676,19.458-19.294,51.508-31.78,24.037c-10.214,11.445-24.971,11.445-28.374-5.724c-4.54,3.435-13.62,8.013-20.431,6.868&#10;&#9;&#9;&#9;c-11.35-3.434-4.54-11.446-10.215-17.169c-9.079-11.446-24.97-11.446-19.295-32.05c-20.43-8.012-5.675-24.036-12.485-35.482&#10;&#9;&#9;&#9;c-2.27-5.724-12.485-6.867-15.89-12.591c-2.27-6.868,2.27-11.446,0-18.313c-2.27-6.868-13.62-9.157-11.351-20.604&#10;&#9;&#9;&#9;c2.271-9.156,13.62-8.012,15.891-14.879c4.54-13.736-12.484-29.761,14.756-32.05c-4.54-16.024-7.945-33.192,14.754-34.338&#10;&#9;&#9;&#9;c-1.134-19.458,6.81-27.471,24.972-29.759c-5.677-21.748,24.969-22.893,38.589-19.46c4.54-20.603,29.511-16.024,40.859-5.723&#10;&#9;&#9;&#9;c9.081-11.446,21.565-12.591,34.051-11.446c5.675,1.145,12.484,3.434,15.889,3.434c4.54,1.146,12.485-2.289,17.025-1.145&#10;&#9;&#9;&#9;c12.485,2.29,15.891,9.157,24.97,13.736c10.215,4.578,27.24,0,26.105,17.169c15.891,0,29.51,9.157,22.7,26.325&#10;&#9;&#9;&#9;c20.43,2.289,21.564,26.326,7.944,38.916c13.62,3.436,18.16,18.314,9.08,28.616c15.89,17.169-1.135,20.603-4.54,32.049&#10;&#9;&#9;&#9;c-3.403,13.735,10.216,28.615-12.484,34.338c6.81,9.157,3.404,22.892-9.081,19.459c6.811,9.157,7.945,26.325-7.943,25.181&#10;&#9;&#9;&#9;c6.809,12.592-2.271,27.471-15.891,20.604c-1.135,12.591-9.08,19.458-21.564,14.88c-2.271,11.446-15.891,12.591-24.971,8.013&#10;&#9;&#9;&#9;c-9.079,14.879-32.914-6.869-21.564-19.459c5.674-6.867,35.185-4.578,45.398-11.445c24.971-14.881,28.376-53.797,22.701-80.123&#10;&#9;&#9;&#9;c-10.215,4.578-14.756-5.723-13.62-14.88c-12.484,1.144-19.295-9.157-11.35-20.603c-9.08-3.434-9.08-13.736-7.945-21.748" style="fill: rgb(119, 134, 146);"/>
		<g>
			<path d="M302.798,802.391c26.273,1.101,58.625,0.297,74.039-24.815c9.132-14.88,9.102-33.402,8.546-50.241&#10;&#9;&#9;&#9;&#9;c-0.639-19.389-2.411-39.511-7.292-58.338c-0.485-1.872-3.378-1.077-2.893,0.797c4.598,17.738,6.199,36.468,7.07,54.721&#10;&#9;&#9;&#9;&#9;c0.814,17.067,1.024,35.312-7.515,50.678c-13.906,25.022-46.994,25.245-71.956,24.199&#10;&#9;&#9;&#9;&#9;C300.863,799.31,300.871,802.31,302.798,802.391L302.798,802.391z"/>
		</g>
		<g>
			<path d="M206.334,684.548c5.072,12.796,1.514,26.406,0.017,39.549c-1.866,16.39,0.964,31.594,9.074,46.009&#10;&#9;&#9;&#9;&#9;c6.054,10.761,15.09,19.981,26.614,24.741c11.331,4.681,23.823,5.333,35.895,6.353c1.929,0.163,1.913-2.838,0-3&#10;&#9;&#9;&#9;&#9;c-11.44-0.967-23.232-1.614-34.042-5.81c-12.997-5.044-21.933-15.959-28.16-28.041c-7.631-14.807-7.793-30.455-5.583-46.556&#10;&#9;&#9;&#9;&#9;c1.567-11.418,3.458-22.996-0.921-34.042C208.522,681.975,205.62,682.748,206.334,684.548L206.334,684.548z"/>
		</g>
		<g>
			<path d="M392.645,694.525c5.874-4.222,8.685,2.775,8.807,7.854c0.066,2.733-0.564,5.763-2.62,7.7&#10;&#9;&#9;&#9;&#9;c-2.69,2.534-7.018,0.407-9.594-1.118c-1.668-0.988-3.176,1.605-1.514,2.59c3.684,2.183,8.431,3.936,12.364,1.33&#10;&#9;&#9;&#9;&#9;c3.248-2.151,4.273-6.417,4.363-10.072c0.18-7.376-5.295-16.642-13.321-10.873C389.575,693.054,391.07,695.657,392.645,694.525&#10;&#9;&#9;&#9;&#9;L392.645,694.525z"/>
		</g>
		<g>
			<path d="M200.471,705.405c-5.61-0.98-12.177,1-14.953,6.335c-3.216,6.18,3.356,10.117,8.48,11.312&#10;&#9;&#9;&#9;&#9;c1.882,0.438,2.682-2.454,0.798-2.893c-3.73-0.869-8.984-3.13-6.247-7.692c2.16-3.601,7.259-4.844,11.124-4.169&#10;&#9;&#9;&#9;&#9;C201.565,708.629,202.374,705.737,200.471,705.405L200.471,705.405z"/>
		</g>
		<path fill="#CFD9E6" d="M259.581,839.5c8.614,3.088,15.55,13.312,22.521,20.15c13.941,13.672,9.408,27.151-1.041,46.287&#10;&#9;&#9;&#9;c-11.904-15.186-46.103-58.705-22.305-67.521" style="fill: rgb(88, 51, 254);"/>
		<path fill="#CFD9E6" d="M324.924,838.889c-21.565,24.971-44.266,30.646-6.812,62.425c9.08-13.619,17.025-32.915,21.565-47.669&#10;&#9;&#9;&#9;c5.675-18.16,1.135-20.431-17.024-17.025" style="fill: rgb(88, 51, 254);"/>
		<g>
			<path d="M231,854c0,0-2,0-3,0c-2,0-2,3.036,0,3.036c15,0,30.5-0.134,41.566-11.778c10.86-11.426,11.813-29.369,11.429-44.201&#10;&#9;&#9;&#9;&#9;c-0.05-1.931-3.036-1.936-2.986,0c0.364,14.047-0.453,30.162-9.975,41.415c-10,11.818-26.035,11.564-40.035,11.564&#10;&#9;&#9;&#9;&#9;c-2,0-2,2.964,0,2.964c1,0,2,0,3,0C233,857,233,854,231,854C231,854,233,854,231,854z"/>
		</g>
		<g>
			<path d="M315.445,804.772c0.884,0.22,1.963,8.687,2.177,9.912c0.816,4.69,1.475,9.408,2.239,14.107&#10;&#9;&#9;&#9;&#9;c1.683,10.34,8.009,18.245,16.365,24.446c11.598,8.607,26.111,8.999,39.888,7.38c17.117-2.012,33.244-5.19,49.13,3.677&#10;&#9;&#9;&#9;&#9;c1.69,0.944,3.203-1.647,1.514-2.59c-13.722-7.66-27.967-7.188-43.08-5.107c-16.945,2.332-33.778,3.777-48.005-7.537&#10;&#9;&#9;&#9;&#9;c-4.717-3.752-10.159-9.578-11.841-15.512c-1.135-4.003-1.518-8.3-2.15-12.4c-0.7-4.536-1.383-9.084-2.396-13.562&#10;&#9;&#9;&#9;&#9;c-0.393-1.736-0.913-5.178-3.042-5.706C314.365,801.414,313.568,804.307,315.445,804.772L315.445,804.772z"/>
		</g>
		<g>
			<path d="M289.317,723.587c-4.08,8.24-7.815,16.636-12.329,24.656c-0.448,0.797-0.076,2.008,0.896,2.203&#10;&#9;&#9;&#9;&#9;c4.741,0.954,8.879,0.432,12.555-2.851c1.446-1.291-0.683-3.405-2.121-2.121c-2.855,2.549-6.016,2.807-9.636,2.079&#10;&#9;&#9;&#9;&#9;c0.299,0.734,0.598,1.469,0.896,2.203c4.514-8.021,8.249-16.415,12.329-24.656C292.763,723.373,290.176,721.853,289.317,723.587&#10;&#9;&#9;&#9;&#9;L289.317,723.587z"/>
		</g>
		<g>
			<path d="M307.646,771.485c5.676-6.42,15.478-6.558,23.198-4.545c1.874,0.489,2.668-2.405,0.798-2.893&#10;&#9;&#9;&#9;&#9;c-8.721-2.274-19.734-1.903-26.117,5.316C304.248,770.808,306.362,772.938,307.646,771.485L307.646,771.485z"/>
		</g>
		
		
		
		
		
		<g>
			<path d="M286.704,891.615c-0.812,3.434-1.552,8.057,1.028,10.981c1.893,2.146,4.771,2.372,7.385,1.619&#10;&#9;&#9;&#9;&#9;c6.817-1.964,10.95-9.55,9.274-16.3c-0.466-1.877-3.359-1.081-2.893,0.797c1.256,5.059-1.67,10.341-6.444,12.35&#10;&#9;&#9;&#9;&#9;c-6.302,2.65-6.485-4.303-5.458-8.65C290.042,890.531,287.149,889.732,286.704,891.615L286.704,891.615z"/>
		</g>
		<g>
			<path d="M285.686,890.514c-10.212,1.281-20.573,0.063-30.822,0c-1.213-0.008-1.767,1.261-1.295,2.257&#10;&#9;&#9;&#9;&#9;c3.169,6.694,6.825,18.792,14.458,21.956c8.065,3.343,17.053-5.868,22.418-10.557c1.459-1.275-0.671-3.388-2.121-2.121&#10;&#9;&#9;&#9;&#9;c-4.291,3.749-13.113,13.066-19.713,9.639c-2.7-1.401-4.4-4.617-5.857-7.136c-2.473-4.275-4.483-8.835-6.595-13.295&#10;&#9;&#9;&#9;&#9;c-0.432,0.752-0.864,1.505-1.295,2.257c10.25,0.063,20.61,1.281,30.822,0C287.579,893.276,287.602,890.273,285.686,890.514&#10;&#9;&#9;&#9;&#9;L285.686,890.514z"/>
		</g>
		<g>
			<path d="M302.188,893.309c9.999,4.868,20.445,7.471,31.577,7.602c-0.482-0.633-0.964-1.266-1.446-1.898&#10;&#9;&#9;&#9;&#9;c-1.428,8.292-6.164,14.44-11.942,20.298c0.606-0.078,1.212-0.156,1.817-0.234c-8.993-3.959-17.673-9.385-22.885-17.955&#10;&#9;&#9;&#9;&#9;c-1.003-1.65-3.599-0.144-2.591,1.514c5.478,9.007,14.487,14.86,23.962,19.031c0.624,0.274,1.304,0.286,1.817-0.234&#10;&#9;&#9;&#9;&#9;c6.127-6.211,11.2-12.833,12.714-21.622c0.165-0.956-0.4-1.886-1.446-1.898c-10.619-0.125-20.523-2.548-30.063-7.191&#10;&#9;&#9;&#9;&#9;C301.971,889.875,300.449,892.462,302.188,893.309L302.188,893.309z"/>
		</g>
		<g>
			<path d="M287.979,891.842c2.271-2.431,3.273-4.785,6.736-5.779c-0.633-0.482-1.266-0.964-1.899-1.446&#10;&#9;&#9;&#9;&#9;c0.092,3.968,1.137,8.024,0.054,11.931c0.982,0.133,1.964,0.266,2.946,0.398c0.151-4.792,3.296-7.69,4.877-11.931&#10;&#9;&#9;&#9;&#9;c-0.734,0.299-1.469,0.598-2.203,0.896c1.377,0.82,1.335,2.989,1.927,4.393c0.75,1.777,3.333,0.246,2.591-1.514&#10;&#9;&#9;&#9;&#9;c-0.991-2.349-0.58-4.026-3.004-5.469c-0.89-0.53-1.871,0.006-2.203,0.896c-0.775,2.078-2.225,3.841-3.273,5.783&#10;&#9;&#9;&#9;&#9;c-1.164,2.157-1.635,4.515-1.711,6.944c-0.054,1.715,2.499,2.014,2.946,0.398c1.168-4.211,0.152-8.454,0.054-12.728&#10;&#9;&#9;&#9;&#9;c-0.022-0.963-0.942-1.721-1.899-1.446c-1.853,0.532-3.436,1.245-4.867,2.553c-1.251,1.143-2.037,2.761-3.192,3.998&#10;&#9;&#9;&#9;&#9;C284.539,891.133,286.655,893.258,287.979,891.842L287.979,891.842z"/>
		</g>
		
	</g>
	<g>
		<path d="M156.757,882.295c14.08-6.167,27.365-15.457,43.243-15.795c1.932-0.041,1.936-3.041,0-3&#10;&#9;&#9;&#9;c-16.472,0.351-30.152,9.808-44.757,16.205C153.475,880.479,155.003,883.063,156.757,882.295L156.757,882.295z"/>
	</g>
</g>
<g transform="matrix(1, 0, 0, 1, 26.300445556640625, -523.7219848632812)">
	<g>
		<path fill="#7ADED4" d="M811.127,617.096c6.926,38.098-62.281,53.078-84.217,75.013c-21.935,21.937-25.365,47.32-36.911,73.873&#10;&#9;&#9;&#9;c-8.082,19.627-39.237,54.254-64.635,36.937c-2.31-1.155-4.61-2.312-6.919-3.467c27.708-49.644-12.208-109.321,0.491-162.429&#10;&#9;&#9;&#9;c5.772-27.708,25.662-50.945,51.061-67.107c20.781-13.854,55.993-19.878,80.236-23.343c30.018-3.463,87.573,6.969,109.509,31.213&#10;&#9;&#9;&#9;c24.244,25.398,12.701,79.659-13.854,98.132c-5.772-24.245,5.772-47.335-5.772-72.733c-2.309,27.708-10.517,53.106-40.534,61.188&#10;&#9;&#9;&#9;c10.392-12.7,26.42-39.253,11.42-54.261c0,2.308,0,5.889,0,5.889" style="fill: rgb(142, 122, 234);"/>
		<path fill="#7ADED4" d="M858.586,664.372c-1.154,40.406,1.154,84.276,10.391,123.53c-31.171,17.317-92.358,31.172-126.993,19.626&#10;&#9;&#9;&#9;c0-17.317,31.171-15.008,42.716-16.162c21.936-2.309,49.643-11.546,58.879-33.48c6.927-13.854-4.618-100.441,13.854-99.287" transform="matrix(1, 0, 0, 1, 0, 0)" style="fill: rgb(88, 51, 254);"/>
		<path fill="#7ADED4" d="M621.916,798.293c21.935,8.082,48.489,31.171,63.497,5.772c8.082-13.854,10.391-41.562-8.081-43.871&#10;&#9;&#9;&#9;c-18.472-3.464-38.098,25.399-49.643,35.789" style="fill: rgb(88, 51, 254);"/>
		<path fill="#C4A0D8" d="M595.598,896.689c-1.459-24.799,27.718-32.094,46.682-39.387c23.342-8.754,23.342-13.131,35.012-32.095&#10;&#9;&#9;&#9;c8.753-14.589,8.753-20.424,30.635-16.047c4.377,1.458,18.965,5.835,21.882,10.212c5.836,7.294,0,16.047,2.918,21.882&#10;&#9;&#9;&#9;c10.213,13.13,30.636,7.294,45.225,8.753c24.8,1.459,91.905,30.635,40.847,46.682c-32.095,8.754-81.694,0-115.247,0&#10;&#9;&#9;&#9;c-33.553,0-74.4-1.458-105.035-4.375"/>
		
		<g>
			<path d="M625.172,872.951c11.982,13.499,20.368,29.166,28.942,44.919c0.925,1.7,3.516,0.186,2.591-1.514&#10;&#9;&#9;&#9;&#9;c-8.7-15.983-17.259-31.836-29.412-45.526C626.007,869.381,623.893,871.51,625.172,872.951L625.172,872.951z"/>
		</g>
		<g>
			<path d="M667.478,845.232c16.929,20.691,56.366,34.988,70.92,4.073c0.819-1.739-1.767-3.264-2.59-1.514&#10;&#9;&#9;&#9;&#9;c-13.731,29.166-50.525,14.488-66.209-4.681C668.374,841.613,666.264,843.749,667.478,845.232L667.478,845.232z"/>
		</g>
		<g>
			<path d="M693.297,813.537c-0.175,7.089-2.718,14.26-4.456,21.078c-1.492,5.859-3.733,12.591-2.785,18.709&#10;&#9;&#9;&#9;&#9;c0.295,1.907,3.186,1.095,2.893-0.797c-0.966-6.235,1.889-13.631,3.418-19.59c1.616-6.3,3.767-12.845,3.929-19.4&#10;&#9;&#9;&#9;&#9;C696.346,811.602,693.345,811.606,693.297,813.537L693.297,813.537z"/>
		</g>
		<g>
			<path d="M706.427,814.996c1.292,14.203-10.211,26.726-8.753,40.848c0.196,1.904,3.198,1.924,3,0&#10;&#9;&#9;&#9;&#9;c-1.45-14.046,10.048-26.61,8.753-40.848C709.253,813.086,706.252,813.069,706.427,814.996L706.427,814.996z"/>
		</g>
		<g>
			<path d="M721.069,821.892c-4.642,11.968-7.2,25.505-7.349,38.328c-0.022,1.936,2.978,1.934,3,0&#10;&#9;&#9;&#9;&#9;c0.146-12.562,2.69-25.796,7.241-37.531C724.662,820.883,721.761,820.107,721.069,821.892L721.069,821.892z"/>
		</g>
		<g>
			<path d="M794.162,859.518c8.793,14.992,12.425,33.448,23.575,46.986c1.23,1.495,3.341-0.641,2.121-2.121&#10;&#9;&#9;&#9;&#9;c-10.942-13.286-14.468-31.65-23.106-46.379C795.774,856.336,793.181,857.846,794.162,859.518L794.162,859.518z"/>
		</g>
		<g transform="matrix(0.7449491024017332, -0.6671218872070311, 0.6671218872070311, 0.7449491024017332, -287.73957262654983, 711.4845703926384)">
			<path fill="#FFFEFD" d="M757.131,746.42c13.274,3.395,20.691,17.771,25.211,29.589c0.684,1.788,3.585,1.013,2.893-0.797&#10;&#9;&#9;&#9;&#9;c-4.903-12.821-12.914-28.005-27.307-31.685C756.053,743.048,755.258,745.941,757.131,746.42L757.131,746.42z" style="fill: rgb(0, 0, 0);"/>
		</g>
	<g>
			<g>
				<path d="M845.311,670.898c0.197,24.12,8.839,47.925,3.889,72.051c-3.25,15.843-14.924,33.267-29.866,40.556&#10;&#9;&#9;&#9;&#9;&#9;c-9.245,4.509-20.008,6.043-30.093,7.335c-6.884,0.882-13.38,0.864-20.291,0.47c-5.573-0.318-11.164,0.123-16.348,2.351&#10;&#9;&#9;&#9;&#9;&#9;c-9.93,4.265-16.123,13.845-20.903,23.102c-2.271,4.398-3.825,8.776-4.903,13.61c-0.56,2.511-1.779,6.519-0.48,8.973&#10;&#9;&#9;&#9;&#9;&#9;c0.904,1.711,3.494,0.194,2.59-1.514c-1.455-2.751,1.573-10.137,2.431-12.903c1.678-5.414,4.931-10.675,8.018-15.387&#10;&#9;&#9;&#9;&#9;&#9;c3.209-4.897,7.249-9.236,12.349-12.167c6.261-3.599,13.701-3.304,20.636-2.859c11.479,0.737,23.241-1.1,34.428-3.668&#10;&#9;&#9;&#9;&#9;&#9;c7.19-1.651,14.299-4.176,20.373-8.438c13.289-9.325,22.717-26.086,25.538-41.688c4.219-23.321-4.175-46.54-4.365-69.822&#10;&#9;&#9;&#9;&#9;&#9;C848.295,668.965,845.295,668.963,845.311,670.898L845.311,670.898z"/>
			</g>
			<g>
				<path d="M677.675,678.582c-2.827,14.616,0.789,29.166,0.956,43.836c0.633-0.482,1.266-0.964,1.899-1.446&#10;&#9;&#9;&#9;&#9;&#9;c-8.35-1.386-15.924,2.842-16.122,12.058c-0.061,2.856,2.437,4.666,4.612,5.955c4.54,2.688,7.263,6.417,10.387,10.634&#10;&#9;&#9;&#9;&#9;&#9;c7.919,10.69,8.271,23.936,7.28,36.756c-1.147,14.826-5.163,29.263-6.036,44.132c-0.113,1.934,2.887,1.923,3,0&#10;&#9;&#9;&#9;&#9;&#9;c1.361-23.193,10.527-46.879,4.524-70.115c-2-7.743-7.464-14.722-12.704-20.59c-2-2.24-5.1-3.057-7.275-5.064&#10;&#9;&#9;&#9;&#9;&#9;c-2.201-2.03,0.534-6.983,1.845-8.623c2.23-2.789,6.539-2.771,9.69-2.249c0.938,0.155,1.911-0.394,1.899-1.446&#10;&#9;&#9;&#9;&#9;&#9;c-0.164-14.362-3.83-28.734-1.063-43.039C680.934,677.489,678.042,676.684,677.675,678.582L677.675,678.582z"/>
			</g>
			<g>
				<path d="M818.036,705.245c-0.327,4.658,0.426,9.272,0.662,13.916c0.109,2.165,0.076,4.453-0.866,6.448&#10;&#9;&#9;&#9;&#9;&#9;c-1.44,3.046-5.662,2.65-8.398,2.38c-1.925-0.19-1.906,2.812,0,3c5.362,0.531,10.361-0.573,11.89-6.297&#10;&#9;&#9;&#9;&#9;&#9;c1.652-6.186-0.731-13.128-0.287-19.447C821.172,703.313,818.171,703.326,818.036,705.245L818.036,705.245z"/>
			</g>
			
			
			
			<g>
				<path d="M675.081,728.969c1.414-0.016,2.975-0.442,4.372-0.172c1.898,0.368,2.069,3.693,2.264,5.133&#10;&#9;&#9;&#9;&#9;&#9;c0.482-0.633,0.964-1.266,1.446-1.898c-0.609-0.078-1.521-1.139-1.97-1.582c0.146,0.354,0.293,0.707,0.439,1.061&#10;&#9;&#9;&#9;&#9;&#9;c0.078-0.609,1.138-1.521,1.581-1.97c1.361-1.377-0.76-3.499-2.121-2.121c-1.016,1.028-2.85,2.876-2.406,4.489&#10;&#9;&#9;&#9;&#9;&#9;c0.427,1.552,3.053,2.941,4.477,3.123c1.078,0.138,1.56-1.055,1.446-1.898c-0.333-2.471-0.908-5.652-3.397-6.88&#10;&#9;&#9;&#9;&#9;&#9;c-1.902-0.938-4.116-0.308-6.13-0.284C673.147,725.991,673.145,728.991,675.081,728.969L675.081,728.969z"/>
			</g>
		</g></g>
	<g>
		<path d="M657.5,767c-1.212,10.626-4.626,21.868-9.795,31.243c-0.935,1.695,1.657,3.208,2.591,1.514&#10;&#9;&#9;&#9;c5.453-9.892,8.928-21.564,10.205-32.757C660.719,765.08,657.717,765.101,657.5,767L657.5,767z"/>
	</g>
	<g>
		<path d="M670.5,775c-0.343,7.15-3.715,14.862-5.946,21.602c-0.61,1.842,2.288,2.625,2.893,0.797&#10;&#9;&#9;&#9;c2.329-7.033,5.696-14.929,6.054-22.398C673.593,773.065,670.592,773.074,670.5,775L670.5,775z"/>
	</g>
	
	<g>
		<path d="M646.243,564.295c6.257,3.247,11.743,7.754,18,11c1.714,0.89,3.231-1.699,1.514-2.59c-6.257-3.247-11.743-7.754-18-11&#10;&#9;&#9;&#9;C646.042,560.815,644.525,563.404,646.243,564.295L646.243,564.295z"/>
	</g>
	<g>
		<path d="M664.243,554.295c4.323,3.304,8.151,7.437,13,10c1.708,0.903,3.225-1.686,1.514-2.59c-4.835-2.557-8.683-6.701-13-10&#10;&#9;&#9;&#9;C664.219,550.529,662.728,553.138,664.243,554.295L664.243,554.295z"/>
	</g>
	<g>
		<path d="M683.939,538.061c1.644,2.098,2.289,5.945,3.169,8.425c1.106,3.116,2.162,6.287,3.596,9.271&#10;&#9;&#9;&#9;c0.838,1.743,3.424,0.221,2.591-1.514c-1.686-3.508-2.844-7.294-4.146-10.954c-0.843-2.371-1.509-5.334-3.089-7.35&#10;&#9;&#9;&#9;C684.868,534.418,682.761,536.557,683.939,538.061L683.939,538.061z"/>
	</g>
</g>
<g transform="matrix(1, 0, 0, 1, 185.72695922851562, 403.095703125)">
			<path d="M1116.206,219.194c0.886-0.066,1.573-0.621,1.616-1.554c0.037-0.812-0.745-1.627-1.577-1.554&#10;&#9;&#9;&#9;&#9;c-1.833,0.161-1.94,2.268-1.955,3.693c-0.011,1.025,0.961,1.639,1.898,1.446c1.128-0.231,2.209-0.6,2.896-1.581&#10;&#9;&#9;&#9;&#9;c0.714-1.019,0.702-2.427,0.708-3.618c0.005-1.048-0.955-1.608-1.898-1.446c-1.297,0.222-2.703,0.891-3.258,2.166&#10;&#9;&#9;&#9;&#9;c-0.477,1.097-0.441,2.4,0.276,3.396c0.663,0.92,1.823,1.593,2.977,1.161c1.502-0.563,2.053-2.162,2.266-3.626&#10;&#9;&#9;&#9;&#9;c0.149-1.026-0.394-1.795-1.446-1.899c-1.473-0.145-3.859-0.16-4.599,1.467c-0.897,1.973,1.044,3.447,2.591,4.247&#10;&#9;&#9;&#9;&#9;c0.671,0.347,1.696,0.23,2.052-0.539c0.424-0.915,0.622-1.691,0.479-2.696c-0.094-0.654-0.594-1.177-0.896-1.736&#10;&#9;&#9;&#9;&#9;c-0.921-1.702-3.511-0.188-2.59,1.514c0.15,0.279,0.336,0.533,0.506,0.801c0.205,0.324-0.013-0.167,0.088,0.219&#10;&#9;&#9;&#9;&#9;c-0.045-0.17-0.157,0.342-0.177,0.385c0.684-0.18,1.368-0.359,2.052-0.539c-0.395-0.204-0.81-0.412-1.15-0.698&#10;&#9;&#9;&#9;&#9;c0.013,0.011-0.365-0.408-0.214-0.197c-0.091-0.162-0.094-0.158-0.01,0.011c0.058,0.222,0.025,0.438-0.098,0.649&#10;&#9;&#9;&#9;&#9;c-0.038,0.084-0.386,0.312-0.098,0.149c-0.174,0.099,0.361-0.074,0.45-0.09c0.504-0.093,1.107,0.003,1.613,0.053&#10;&#9;&#9;&#9;&#9;c-0.482-0.633-0.964-1.266-1.446-1.899c-0.069,0.473-0.162,0.933-0.315,1.385c0.061-0.179-0.129,0.24-0.161,0.294&#10;&#9;&#9;&#9;&#9;c0.199-0.326-0.299,0.204,0.102-0.08c-0.082,0.058,0.141-0.039,0.292-0.052c-0.16-0.004-0.104,0.006,0.168,0.032&#10;&#9;&#9;&#9;&#9;c-0.148-0.044-0.103-0.02,0.136,0.072c-0.351-0.155,0.145,0.157-0.037-0.006c-0.296-0.268,0.091,0.164-0.047-0.049&#10;&#9;&#9;&#9;&#9;c-0.053-0.081-0.176-0.375-0.017,0.017c-0.049-0.122-0.078-0.25-0.104-0.379c0.086,0.433,0.024,0.021,0.032-0.104&#10;&#9;&#9;&#9;&#9;c-0.033,0.54,0.152-0.292-0.041,0.151c0.039-0.089,0.314-0.431,0.087-0.169c0.235-0.271,0.015-0.053,0.21-0.177&#10;&#9;&#9;&#9;&#9;c0.292-0.187,0.646-0.26,1.124-0.342c-0.633-0.482-1.266-0.964-1.898-1.446c-0.002,0.516-0.015,1.03-0.068,1.543&#10;&#9;&#9;&#9;&#9;c-0.019,0.18-0.062,0.296-0.164,0.466c0.168-0.282,0.013-0.035-0.066,0.037c0.336-0.302-0.341,0.109,0.011-0.029&#10;&#9;&#9;&#9;&#9;c-0.356,0.14-0.74,0.212-1.113,0.289c0.633,0.482,1.266,0.964,1.898,1.446c0.004-0.397,0.011-0.85,0.07-1.159&#10;&#9;&#9;&#9;&#9;c0.019-0.094,0.168-0.479-0.016-0.065c0.012-0.022,0.024-0.043,0.036-0.065c-0.421,0.659-1.129,0.719-2.124,0.18&#10;&#9;&#9;&#9;&#9;c-0.129-0.221-0.257-0.441-0.386-0.662c-0.017-0.123-0.033-0.245-0.049-0.368c0.068-0.252,0.137-0.505,0.205-0.757&#10;&#9;&#9;&#9;&#9;c0.393-0.23,0.785-0.459,1.179-0.689C1114.289,216.336,1114.275,219.337,1116.206,219.194L1116.206,219.194z" transform="matrix(1, 0, 0, 1, 359.0582928930523, -411.65918930413636)"/>
		</g><g transform="matrix(1, 0, 0, 1, 487.475830078125, -20.442392349243164)">
			<path d="M1116.206,219.194c0.886-0.066,1.573-0.621,1.616-1.554c0.037-0.812-0.745-1.627-1.577-1.554&#10;&#9;&#9;&#9;&#9;c-1.833,0.161-1.94,2.268-1.955,3.693c-0.011,1.025,0.961,1.639,1.898,1.446c1.128-0.231,2.209-0.6,2.896-1.581&#10;&#9;&#9;&#9;&#9;c0.714-1.019,0.702-2.427,0.708-3.618c0.005-1.048-0.955-1.608-1.898-1.446c-1.297,0.222-2.703,0.891-3.258,2.166&#10;&#9;&#9;&#9;&#9;c-0.477,1.097-0.441,2.4,0.276,3.396c0.663,0.92,1.823,1.593,2.977,1.161c1.502-0.563,2.053-2.162,2.266-3.626&#10;&#9;&#9;&#9;&#9;c0.149-1.026-0.394-1.795-1.446-1.899c-1.473-0.145-3.859-0.16-4.599,1.467c-0.897,1.973,1.044,3.447,2.591,4.247&#10;&#9;&#9;&#9;&#9;c0.671,0.347,1.696,0.23,2.052-0.539c0.424-0.915,0.622-1.691,0.479-2.696c-0.094-0.654-0.594-1.177-0.896-1.736&#10;&#9;&#9;&#9;&#9;c-0.921-1.702-3.511-0.188-2.59,1.514c0.15,0.279,0.336,0.533,0.506,0.801c0.205,0.324-0.013-0.167,0.088,0.219&#10;&#9;&#9;&#9;&#9;c-0.045-0.17-0.157,0.342-0.177,0.385c0.684-0.18,1.368-0.359,2.052-0.539c-0.395-0.204-0.81-0.412-1.15-0.698&#10;&#9;&#9;&#9;&#9;c0.013,0.011-0.365-0.408-0.214-0.197c-0.091-0.162-0.094-0.158-0.01,0.011c0.058,0.222,0.025,0.438-0.098,0.649&#10;&#9;&#9;&#9;&#9;c-0.038,0.084-0.386,0.312-0.098,0.149c-0.174,0.099,0.361-0.074,0.45-0.09c0.504-0.093,1.107,0.003,1.613,0.053&#10;&#9;&#9;&#9;&#9;c-0.482-0.633-0.964-1.266-1.446-1.899c-0.069,0.473-0.162,0.933-0.315,1.385c0.061-0.179-0.129,0.24-0.161,0.294&#10;&#9;&#9;&#9;&#9;c0.199-0.326-0.299,0.204,0.102-0.08c-0.082,0.058,0.141-0.039,0.292-0.052c-0.16-0.004-0.104,0.006,0.168,0.032&#10;&#9;&#9;&#9;&#9;c-0.148-0.044-0.103-0.02,0.136,0.072c-0.351-0.155,0.145,0.157-0.037-0.006c-0.296-0.268,0.091,0.164-0.047-0.049&#10;&#9;&#9;&#9;&#9;c-0.053-0.081-0.176-0.375-0.017,0.017c-0.049-0.122-0.078-0.25-0.104-0.379c0.086,0.433,0.024,0.021,0.032-0.104&#10;&#9;&#9;&#9;&#9;c-0.033,0.54,0.152-0.292-0.041,0.151c0.039-0.089,0.314-0.431,0.087-0.169c0.235-0.271,0.015-0.053,0.21-0.177&#10;&#9;&#9;&#9;&#9;c0.292-0.187,0.646-0.26,1.124-0.342c-0.633-0.482-1.266-0.964-1.898-1.446c-0.002,0.516-0.015,1.03-0.068,1.543&#10;&#9;&#9;&#9;&#9;c-0.019,0.18-0.062,0.296-0.164,0.466c0.168-0.282,0.013-0.035-0.066,0.037c0.336-0.302-0.341,0.109,0.011-0.029&#10;&#9;&#9;&#9;&#9;c-0.356,0.14-0.74,0.212-1.113,0.289c0.633,0.482,1.266,0.964,1.898,1.446c0.004-0.397,0.011-0.85,0.07-1.159&#10;&#9;&#9;&#9;&#9;c0.019-0.094,0.168-0.479-0.016-0.065c0.012-0.022,0.024-0.043,0.036-0.065c-0.421,0.659-1.129,0.719-2.124,0.18&#10;&#9;&#9;&#9;&#9;c-0.129-0.221-0.257-0.441-0.386-0.662c-0.017-0.123-0.033-0.245-0.049-0.368c0.068-0.252,0.137-0.505,0.205-0.757&#10;&#9;&#9;&#9;&#9;c0.393-0.23,0.785-0.459,1.179-0.689C1114.289,216.336,1114.275,219.337,1116.206,219.194L1116.206,219.194z"/>
		</g><g transform="matrix(1, 0, 0, 1, -260.97711181640625, -49.70695495605469)">
			<path d="M1116.206,219.194c0.886-0.066,1.573-0.621,1.616-1.554c0.037-0.812-0.745-1.627-1.577-1.554&#10;&#9;&#9;&#9;&#9;c-1.833,0.161-1.94,2.268-1.955,3.693c-0.011,1.025,0.961,1.639,1.898,1.446c1.128-0.231,2.209-0.6,2.896-1.581&#10;&#9;&#9;&#9;&#9;c0.714-1.019,0.702-2.427,0.708-3.618c0.005-1.048-0.955-1.608-1.898-1.446c-1.297,0.222-2.703,0.891-3.258,2.166&#10;&#9;&#9;&#9;&#9;c-0.477,1.097-0.441,2.4,0.276,3.396c0.663,0.92,1.823,1.593,2.977,1.161c1.502-0.563,2.053-2.162,2.266-3.626&#10;&#9;&#9;&#9;&#9;c0.149-1.026-0.394-1.795-1.446-1.899c-1.473-0.145-3.859-0.16-4.599,1.467c-0.897,1.973,1.044,3.447,2.591,4.247&#10;&#9;&#9;&#9;&#9;c0.671,0.347,1.696,0.23,2.052-0.539c0.424-0.915,0.622-1.691,0.479-2.696c-0.094-0.654-0.594-1.177-0.896-1.736&#10;&#9;&#9;&#9;&#9;c-0.921-1.702-3.511-0.188-2.59,1.514c0.15,0.279,0.336,0.533,0.506,0.801c0.205,0.324-0.013-0.167,0.088,0.219&#10;&#9;&#9;&#9;&#9;c-0.045-0.17-0.157,0.342-0.177,0.385c0.684-0.18,1.368-0.359,2.052-0.539c-0.395-0.204-0.81-0.412-1.15-0.698&#10;&#9;&#9;&#9;&#9;c0.013,0.011-0.365-0.408-0.214-0.197c-0.091-0.162-0.094-0.158-0.01,0.011c0.058,0.222,0.025,0.438-0.098,0.649&#10;&#9;&#9;&#9;&#9;c-0.038,0.084-0.386,0.312-0.098,0.149c-0.174,0.099,0.361-0.074,0.45-0.09c0.504-0.093,1.107,0.003,1.613,0.053&#10;&#9;&#9;&#9;&#9;c-0.482-0.633-0.964-1.266-1.446-1.899c-0.069,0.473-0.162,0.933-0.315,1.385c0.061-0.179-0.129,0.24-0.161,0.294&#10;&#9;&#9;&#9;&#9;c0.199-0.326-0.299,0.204,0.102-0.08c-0.082,0.058,0.141-0.039,0.292-0.052c-0.16-0.004-0.104,0.006,0.168,0.032&#10;&#9;&#9;&#9;&#9;c-0.148-0.044-0.103-0.02,0.136,0.072c-0.351-0.155,0.145,0.157-0.037-0.006c-0.296-0.268,0.091,0.164-0.047-0.049&#10;&#9;&#9;&#9;&#9;c-0.053-0.081-0.176-0.375-0.017,0.017c-0.049-0.122-0.078-0.25-0.104-0.379c0.086,0.433,0.024,0.021,0.032-0.104&#10;&#9;&#9;&#9;&#9;c-0.033,0.54,0.152-0.292-0.041,0.151c0.039-0.089,0.314-0.431,0.087-0.169c0.235-0.271,0.015-0.053,0.21-0.177&#10;&#9;&#9;&#9;&#9;c0.292-0.187,0.646-0.26,1.124-0.342c-0.633-0.482-1.266-0.964-1.898-1.446c-0.002,0.516-0.015,1.03-0.068,1.543&#10;&#9;&#9;&#9;&#9;c-0.019,0.18-0.062,0.296-0.164,0.466c0.168-0.282,0.013-0.035-0.066,0.037c0.336-0.302-0.341,0.109,0.011-0.029&#10;&#9;&#9;&#9;&#9;c-0.356,0.14-0.74,0.212-1.113,0.289c0.633,0.482,1.266,0.964,1.898,1.446c0.004-0.397,0.011-0.85,0.07-1.159&#10;&#9;&#9;&#9;&#9;c0.019-0.094,0.168-0.479-0.016-0.065c0.012-0.022,0.024-0.043,0.036-0.065c-0.421,0.659-1.129,0.719-2.124,0.18&#10;&#9;&#9;&#9;&#9;c-0.129-0.221-0.257-0.441-0.386-0.662c-0.017-0.123-0.033-0.245-0.049-0.368c0.068-0.252,0.137-0.505,0.205-0.757&#10;&#9;&#9;&#9;&#9;c0.393-0.23,0.785-0.459,1.179-0.689C1114.289,216.336,1114.275,219.337,1116.206,219.194L1116.206,219.194z"/>
		</g><g transform="matrix(1, 0, 0, 1, -311.9770202636719, -40.70695495605469)">
			<path d="M1116.206,219.194c0.886-0.066,1.573-0.621,1.616-1.554c0.037-0.812-0.745-1.627-1.577-1.554&#10;&#9;&#9;&#9;&#9;c-1.833,0.161-1.94,2.268-1.955,3.693c-0.011,1.025,0.961,1.639,1.898,1.446c1.128-0.231,2.209-0.6,2.896-1.581&#10;&#9;&#9;&#9;&#9;c0.714-1.019,0.702-2.427,0.708-3.618c0.005-1.048-0.955-1.608-1.898-1.446c-1.297,0.222-2.703,0.891-3.258,2.166&#10;&#9;&#9;&#9;&#9;c-0.477,1.097-0.441,2.4,0.276,3.396c0.663,0.92,1.823,1.593,2.977,1.161c1.502-0.563,2.053-2.162,2.266-3.626&#10;&#9;&#9;&#9;&#9;c0.149-1.026-0.394-1.795-1.446-1.899c-1.473-0.145-3.859-0.16-4.599,1.467c-0.897,1.973,1.044,3.447,2.591,4.247&#10;&#9;&#9;&#9;&#9;c0.671,0.347,1.696,0.23,2.052-0.539c0.424-0.915,0.622-1.691,0.479-2.696c-0.094-0.654-0.594-1.177-0.896-1.736&#10;&#9;&#9;&#9;&#9;c-0.921-1.702-3.511-0.188-2.59,1.514c0.15,0.279,0.336,0.533,0.506,0.801c0.205,0.324-0.013-0.167,0.088,0.219&#10;&#9;&#9;&#9;&#9;c-0.045-0.17-0.157,0.342-0.177,0.385c0.684-0.18,1.368-0.359,2.052-0.539c-0.395-0.204-0.81-0.412-1.15-0.698&#10;&#9;&#9;&#9;&#9;c0.013,0.011-0.365-0.408-0.214-0.197c-0.091-0.162-0.094-0.158-0.01,0.011c0.058,0.222,0.025,0.438-0.098,0.649&#10;&#9;&#9;&#9;&#9;c-0.038,0.084-0.386,0.312-0.098,0.149c-0.174,0.099,0.361-0.074,0.45-0.09c0.504-0.093,1.107,0.003,1.613,0.053&#10;&#9;&#9;&#9;&#9;c-0.482-0.633-0.964-1.266-1.446-1.899c-0.069,0.473-0.162,0.933-0.315,1.385c0.061-0.179-0.129,0.24-0.161,0.294&#10;&#9;&#9;&#9;&#9;c0.199-0.326-0.299,0.204,0.102-0.08c-0.082,0.058,0.141-0.039,0.292-0.052c-0.16-0.004-0.104,0.006,0.168,0.032&#10;&#9;&#9;&#9;&#9;c-0.148-0.044-0.103-0.02,0.136,0.072c-0.351-0.155,0.145,0.157-0.037-0.006c-0.296-0.268,0.091,0.164-0.047-0.049&#10;&#9;&#9;&#9;&#9;c-0.053-0.081-0.176-0.375-0.017,0.017c-0.049-0.122-0.078-0.25-0.104-0.379c0.086,0.433,0.024,0.021,0.032-0.104&#10;&#9;&#9;&#9;&#9;c-0.033,0.54,0.152-0.292-0.041,0.151c0.039-0.089,0.314-0.431,0.087-0.169c0.235-0.271,0.015-0.053,0.21-0.177&#10;&#9;&#9;&#9;&#9;c0.292-0.187,0.646-0.26,1.124-0.342c-0.633-0.482-1.266-0.964-1.898-1.446c-0.002,0.516-0.015,1.03-0.068,1.543&#10;&#9;&#9;&#9;&#9;c-0.019,0.18-0.062,0.296-0.164,0.466c0.168-0.282,0.013-0.035-0.066,0.037c0.336-0.302-0.341,0.109,0.011-0.029&#10;&#9;&#9;&#9;&#9;c-0.356,0.14-0.74,0.212-1.113,0.289c0.633,0.482,1.266,0.964,1.898,1.446c0.004-0.397,0.011-0.85,0.07-1.159&#10;&#9;&#9;&#9;&#9;c0.019-0.094,0.168-0.479-0.016-0.065c0.012-0.022,0.024-0.043,0.036-0.065c-0.421,0.659-1.129,0.719-2.124,0.18&#10;&#9;&#9;&#9;&#9;c-0.129-0.221-0.257-0.441-0.386-0.662c-0.017-0.123-0.033-0.245-0.049-0.368c0.068-0.252,0.137-0.505,0.205-0.757&#10;&#9;&#9;&#9;&#9;c0.393-0.23,0.785-0.459,1.179-0.689C1114.289,216.336,1114.275,219.337,1116.206,219.194L1116.206,219.194z"/>
		</g><g transform="matrix(1, 0, 0, 1, 306.7582702636719, -33.13749122619629)">
			<path d="M1116.206,219.194c0.886-0.066,1.573-0.621,1.616-1.554c0.037-0.812-0.745-1.627-1.577-1.554&#10;&#9;&#9;&#9;&#9;c-1.833,0.161-1.94,2.268-1.955,3.693c-0.011,1.025,0.961,1.639,1.898,1.446c1.128-0.231,2.209-0.6,2.896-1.581&#10;&#9;&#9;&#9;&#9;c0.714-1.019,0.702-2.427,0.708-3.618c0.005-1.048-0.955-1.608-1.898-1.446c-1.297,0.222-2.703,0.891-3.258,2.166&#10;&#9;&#9;&#9;&#9;c-0.477,1.097-0.441,2.4,0.276,3.396c0.663,0.92,1.823,1.593,2.977,1.161c1.502-0.563,2.053-2.162,2.266-3.626&#10;&#9;&#9;&#9;&#9;c0.149-1.026-0.394-1.795-1.446-1.899c-1.473-0.145-3.859-0.16-4.599,1.467c-0.897,1.973,1.044,3.447,2.591,4.247&#10;&#9;&#9;&#9;&#9;c0.671,0.347,1.696,0.23,2.052-0.539c0.424-0.915,0.622-1.691,0.479-2.696c-0.094-0.654-0.594-1.177-0.896-1.736&#10;&#9;&#9;&#9;&#9;c-0.921-1.702-3.511-0.188-2.59,1.514c0.15,0.279,0.336,0.533,0.506,0.801c0.205,0.324-0.013-0.167,0.088,0.219&#10;&#9;&#9;&#9;&#9;c-0.045-0.17-0.157,0.342-0.177,0.385c0.684-0.18,1.368-0.359,2.052-0.539c-0.395-0.204-0.81-0.412-1.15-0.698&#10;&#9;&#9;&#9;&#9;c0.013,0.011-0.365-0.408-0.214-0.197c-0.091-0.162-0.094-0.158-0.01,0.011c0.058,0.222,0.025,0.438-0.098,0.649&#10;&#9;&#9;&#9;&#9;c-0.038,0.084-0.386,0.312-0.098,0.149c-0.174,0.099,0.361-0.074,0.45-0.09c0.504-0.093,1.107,0.003,1.613,0.053&#10;&#9;&#9;&#9;&#9;c-0.482-0.633-0.964-1.266-1.446-1.899c-0.069,0.473-0.162,0.933-0.315,1.385c0.061-0.179-0.129,0.24-0.161,0.294&#10;&#9;&#9;&#9;&#9;c0.199-0.326-0.299,0.204,0.102-0.08c-0.082,0.058,0.141-0.039,0.292-0.052c-0.16-0.004-0.104,0.006,0.168,0.032&#10;&#9;&#9;&#9;&#9;c-0.148-0.044-0.103-0.02,0.136,0.072c-0.351-0.155,0.145,0.157-0.037-0.006c-0.296-0.268,0.091,0.164-0.047-0.049&#10;&#9;&#9;&#9;&#9;c-0.053-0.081-0.176-0.375-0.017,0.017c-0.049-0.122-0.078-0.25-0.104-0.379c0.086,0.433,0.024,0.021,0.032-0.104&#10;&#9;&#9;&#9;&#9;c-0.033,0.54,0.152-0.292-0.041,0.151c0.039-0.089,0.314-0.431,0.087-0.169c0.235-0.271,0.015-0.053,0.21-0.177&#10;&#9;&#9;&#9;&#9;c0.292-0.187,0.646-0.26,1.124-0.342c-0.633-0.482-1.266-0.964-1.898-1.446c-0.002,0.516-0.015,1.03-0.068,1.543&#10;&#9;&#9;&#9;&#9;c-0.019,0.18-0.062,0.296-0.164,0.466c0.168-0.282,0.013-0.035-0.066,0.037c0.336-0.302-0.341,0.109,0.011-0.029&#10;&#9;&#9;&#9;&#9;c-0.356,0.14-0.74,0.212-1.113,0.289c0.633,0.482,1.266,0.964,1.898,1.446c0.004-0.397,0.011-0.85,0.07-1.159&#10;&#9;&#9;&#9;&#9;c0.019-0.094,0.168-0.479-0.016-0.065c0.012-0.022,0.024-0.043,0.036-0.065c-0.421,0.659-1.129,0.719-2.124,0.18&#10;&#9;&#9;&#9;&#9;c-0.129-0.221-0.257-0.441-0.386-0.662c-0.017-0.123-0.033-0.245-0.049-0.368c0.068-0.252,0.137-0.505,0.205-0.757&#10;&#9;&#9;&#9;&#9;c0.393-0.23,0.785-0.459,1.179-0.689C1114.289,216.336,1114.275,219.337,1116.206,219.194L1116.206,219.194z"/>
		</g><g transform="matrix(1, 0, 0, 1, 224.75833129882812, -33.13755226135254)">
			<path d="M1116.206,219.194c0.886-0.066,1.573-0.621,1.616-1.554c0.037-0.812-0.745-1.627-1.577-1.554&#10;&#9;&#9;&#9;&#9;c-1.833,0.161-1.94,2.268-1.955,3.693c-0.011,1.025,0.961,1.639,1.898,1.446c1.128-0.231,2.209-0.6,2.896-1.581&#10;&#9;&#9;&#9;&#9;c0.714-1.019,0.702-2.427,0.708-3.618c0.005-1.048-0.955-1.608-1.898-1.446c-1.297,0.222-2.703,0.891-3.258,2.166&#10;&#9;&#9;&#9;&#9;c-0.477,1.097-0.441,2.4,0.276,3.396c0.663,0.92,1.823,1.593,2.977,1.161c1.502-0.563,2.053-2.162,2.266-3.626&#10;&#9;&#9;&#9;&#9;c0.149-1.026-0.394-1.795-1.446-1.899c-1.473-0.145-3.859-0.16-4.599,1.467c-0.897,1.973,1.044,3.447,2.591,4.247&#10;&#9;&#9;&#9;&#9;c0.671,0.347,1.696,0.23,2.052-0.539c0.424-0.915,0.622-1.691,0.479-2.696c-0.094-0.654-0.594-1.177-0.896-1.736&#10;&#9;&#9;&#9;&#9;c-0.921-1.702-3.511-0.188-2.59,1.514c0.15,0.279,0.336,0.533,0.506,0.801c0.205,0.324-0.013-0.167,0.088,0.219&#10;&#9;&#9;&#9;&#9;c-0.045-0.17-0.157,0.342-0.177,0.385c0.684-0.18,1.368-0.359,2.052-0.539c-0.395-0.204-0.81-0.412-1.15-0.698&#10;&#9;&#9;&#9;&#9;c0.013,0.011-0.365-0.408-0.214-0.197c-0.091-0.162-0.094-0.158-0.01,0.011c0.058,0.222,0.025,0.438-0.098,0.649&#10;&#9;&#9;&#9;&#9;c-0.038,0.084-0.386,0.312-0.098,0.149c-0.174,0.099,0.361-0.074,0.45-0.09c0.504-0.093,1.107,0.003,1.613,0.053&#10;&#9;&#9;&#9;&#9;c-0.482-0.633-0.964-1.266-1.446-1.899c-0.069,0.473-0.162,0.933-0.315,1.385c0.061-0.179-0.129,0.24-0.161,0.294&#10;&#9;&#9;&#9;&#9;c0.199-0.326-0.299,0.204,0.102-0.08c-0.082,0.058,0.141-0.039,0.292-0.052c-0.16-0.004-0.104,0.006,0.168,0.032&#10;&#9;&#9;&#9;&#9;c-0.148-0.044-0.103-0.02,0.136,0.072c-0.351-0.155,0.145,0.157-0.037-0.006c-0.296-0.268,0.091,0.164-0.047-0.049&#10;&#9;&#9;&#9;&#9;c-0.053-0.081-0.176-0.375-0.017,0.017c-0.049-0.122-0.078-0.25-0.104-0.379c0.086,0.433,0.024,0.021,0.032-0.104&#10;&#9;&#9;&#9;&#9;c-0.033,0.54,0.152-0.292-0.041,0.151c0.039-0.089,0.314-0.431,0.087-0.169c0.235-0.271,0.015-0.053,0.21-0.177&#10;&#9;&#9;&#9;&#9;c0.292-0.187,0.646-0.26,1.124-0.342c-0.633-0.482-1.266-0.964-1.898-1.446c-0.002,0.516-0.015,1.03-0.068,1.543&#10;&#9;&#9;&#9;&#9;c-0.019,0.18-0.062,0.296-0.164,0.466c0.168-0.282,0.013-0.035-0.066,0.037c0.336-0.302-0.341,0.109,0.011-0.029&#10;&#9;&#9;&#9;&#9;c-0.356,0.14-0.74,0.212-1.113,0.289c0.633,0.482,1.266,0.964,1.898,1.446c0.004-0.397,0.011-0.85,0.07-1.159&#10;&#9;&#9;&#9;&#9;c0.019-0.094,0.168-0.479-0.016-0.065c0.012-0.022,0.024-0.043,0.036-0.065c-0.421,0.659-1.129,0.719-2.124,0.18&#10;&#9;&#9;&#9;&#9;c-0.129-0.221-0.257-0.441-0.386-0.662c-0.017-0.123-0.033-0.245-0.049-0.368c0.068-0.252,0.137-0.505,0.205-0.757&#10;&#9;&#9;&#9;&#9;c0.393-0.23,0.785-0.459,1.179-0.689C1114.289,216.336,1114.275,219.337,1116.206,219.194L1116.206,219.194z"/>
		</g><g transform="matrix(1, 0, 0, 1, 149.7114759976903, -508.39502762308905)">
			<path fill="#C4A0D8" d="M270.452,672.137c-17.272-6.808-35.85,2.503-46.15,16.691c-5.093,7.016-7.756,15.928-6.844,24.57&#10;&#9;&#9;&#9;&#9;c0.998,9.467,6.595,17.178,13.674,23.188c9.402,7.979,21.475,12.453,33.254,7.133c10.121-4.572,16.394-15.457,19.805-25.527&#10;&#9;&#9;&#9;&#9;c3.804-11.227,4.57-24.451-0.413-35.422c-5.378-11.843-17.959-14.682-29.716-11.866c-3.762,0.9-2.166,6.686,1.595,5.785&#10;&#9;&#9;&#9;&#9;c10.735-2.57,20.288,0.745,23.934,11.708c3.474,10.445,1.435,22.835-2.909,32.707c-4.079,9.269-11.68,18.717-22.601,19.096&#10;&#9;&#9;&#9;&#9;c-15.529,0.538-30.942-16.203-30.829-31.022c0.164-21.487,25.754-39.078,45.605-31.255&#10;&#9;&#9;&#9;&#9;C272.46,679.343,274.008,673.538,270.452,672.137L270.452,672.137z"/>
		</g><g transform="matrix(1, 0, 0, 1, 149.7114759976903, -508.39502762308905)">
			<path fill="#C4A0D8" d="M288.837,704.743c3.416-2.114,9.214-1.532,12.945-0.932c3.784,0.609,5.407-5.172,1.595-5.785&#10;&#9;&#9;&#9;&#9;c-5.357-0.863-12.684-1.487-17.568,1.535C282.527,701.593,285.537,706.785,288.837,704.743L288.837,704.743z"/>
		</g><g transform="matrix(1, 0, 0, 1, 149.7114759976903, -508.39502762308905)">
			<path fill="#C4A0D8" d="M344.422,672.137c-16.385-6.449-31.507,4.489-38.173,19.261c-7.108,15.752-4.483,34.099,9.607,44.826&#10;&#9;&#9;&#9;&#9;c10.921,8.315,25.326,10.525,36.809,2.12c10.127-7.411,15.618-20.028,16.715-32.264c1.554-17.341-9.14-31.359-26.989-31.585&#10;&#9;&#9;&#9;&#9;c-3.871-0.049-3.866,5.951,0,6c30.191,0.381,24.051,42.353,4.905,54.249c-12.988,8.07-30.522-1.093-36.589-13.743&#10;&#9;&#9;&#9;&#9;c-7.112-14.83,1.366-37.462,16.701-43.554c5.102-2.026,10.405-1.498,15.418,0.475&#10;&#9;&#9;&#9;&#9;C346.432,679.341,347.98,673.537,344.422,672.137L344.422,672.137z"/>
		</g></svg>